<svg width="94" height="95" viewBox="0 0 94 95" fill="none" xmlns="http://www.w3.org/2000/svg">
<path id="&#208;&#146;&#209;&#129;&#208;&#181;" fill-rule="evenodd" clip-rule="evenodd" d="M45.8 1.3917C45.2775 1.6044 35.535 5.2962 24.15 9.59581C12.765 13.8954 3.17791 17.5387 2.84531 17.6919C2.03431 18.0655 1.56451 18.4986 1.22901 19.1818L0.950007 19.75L0.924307 46.0468C0.895107 75.8248 0.813807 73.0269 1.73471 73.9478C2.08001 74.2931 2.44091 74.5385 2.80311 74.6742C3.28041 74.8532 15.1186 80.1877 39.25 91.0981C43.5459 93.0404 46.3576 94.2568 46.7 94.3213C47.1291 94.4021 47.3709 94.3926 47.8 94.2779C48.1025 94.1971 58.07 89.7885 69.95 84.481C81.83 79.1734 91.762 74.751 92.0212 74.6533C92.6586 74.4131 93.252 73.8838 93.579 73.2638L93.85 72.75L93.8757 46.4532C93.9042 17.4051 93.9515 19.5764 93.2707 18.6838C93.0905 18.4476 92.7306 18.1229 92.4709 17.9623C92.2112 17.8018 82.3352 14.0142 70.5243 9.54551C58.7135 5.0768 48.8133 1.326 48.5239 1.2103C47.6885 0.876304 46.9446 0.925904 45.8 1.3917ZM65.9077 13.7013C76.0982 17.552 84.4501 20.7168 84.4674 20.7341C84.4848 20.7515 76.1508 23.9199 65.9474 27.7751L47.3958 34.7846L28.847 27.7765C18.6452 23.9221 10.3148 20.7519 10.335 20.7316C10.3596 20.7071 46.7595 6.91921 47.3647 6.70521C47.3728 6.70231 55.7171 9.85061 65.9077 13.7013ZM25.575 32.4283L44.4 39.5422V63.4612V87.3803L41.325 85.9894C39.6337 85.2244 31.095 81.3666 22.35 77.4165L6.45001 70.2345L6.42481 47.7065C6.40081 26.2754 6.40811 25.1817 6.57481 25.2464C6.67121 25.2838 15.2212 28.5157 25.575 32.4283ZM88.3752 47.7109L88.35 70.2218L69.25 78.7565C58.745 83.4506 50.1162 87.2931 50.0748 87.2956C50.0334 87.298 50.0109 76.5832 50.0248 63.485L50.05 39.67L69.15 32.4438C79.655 28.4693 88.2838 25.2136 88.3252 25.2088C88.3666 25.2039 88.3891 35.3299 88.3752 47.7109Z" fill="black"/>
</svg>
