<svg width="94" height="51" viewBox="0 0 94 51" fill="none" xmlns="http://www.w3.org/2000/svg">
<path id="&#208;&#144;&#208;&#178;&#209;&#130;&#208;&#190;" fill-rule="evenodd" clip-rule="evenodd" d="M26.55 0.961687C25.4782 1.17959 25.1766 1.25119 24.698 1.40109C23.4836 1.78159 22.3493 2.41338 21.303 3.29218C19.8474 4.51478 19.5611 4.91748 15.2538 11.8C12.8133 15.6994 12.469 16.2168 12.2599 16.2972C12.1445 16.3416 11.8025 16.4903 11.5 16.6277C11.1975 16.7652 10.725 16.9779 10.45 17.1005C10.175 17.2231 9.5286 17.5206 9.0136 17.7617C8.4987 18.0028 8.0626 18.2 8.0446 18.2C8.0158 18.2 7.0757 18.6362 5.3 19.4736C4.4022 19.8969 3.7551 20.3482 2.9522 21.1109C1.7441 22.2585 1.1447 23.1872 0.635899 24.7L0.349998 25.55V30.75C0.349998 35.9404 0.350399 35.9513 0.584599 36.65C1.1387 38.303 2.128 39.7838 3.35 40.7898C5.1309 42.2558 6.8039 42.7999 9.5312 42.7999H10.774L10.9005 43.2749C11.061 43.8777 11.7066 45.1728 12.2332 45.9485C13.1647 47.3207 15.0355 48.906 16.55 49.6064C18.2552 50.395 19.0807 50.5503 21.55 50.5474C23.5221 50.5451 23.7096 50.5284 24.6283 50.2739C26.5192 49.7501 28.0628 48.849 29.456 47.4559C30.6645 46.2473 31.7002 44.5936 32.1057 43.2249L32.2317 42.7999H47.462H62.6923L62.8058 43.2249C63.154 44.5292 64.1919 46.1832 65.4543 47.4456C66.8637 48.855 68.2921 49.6934 70.25 50.2603C71.215 50.5398 71.3252 50.5499 73.4 50.5499C75.1764 50.5499 75.6716 50.5176 76.25 50.3643C78.2804 49.8259 79.7393 49.0269 81.1652 47.6725C82.4721 46.4311 83.6852 44.5659 84.01 43.2987L84.1378 42.7999L84.8939 42.7979C87.2879 42.7916 89.2735 41.9986 90.8986 40.4C92.4361 38.8875 93.0601 37.7197 93.4635 35.6C93.5764 35.007 93.5996 33.9915 93.5742 30.75C93.5437 26.8506 93.5311 26.6116 93.3173 25.8659C92.9294 24.5132 92.3842 23.5186 91.4345 22.4312C90.2027 21.0209 88.8144 20.2026 86.65 19.6109C86.43 19.5508 85.665 19.3438 84.95 19.151C83.715 18.8179 83.2329 18.6843 82.55 18.4858C82.385 18.4378 81.665 18.2421 80.95 18.051C80.235 17.8598 79.515 17.663 79.35 17.6137C79.185 17.5643 78.015 17.2428 76.75 16.8992C75.485 16.5557 74.2154 16.2101 73.9286 16.1312C73.3392 15.9692 73.5048 16.1609 70.1863 11.8C69.6631 11.1125 68.8903 10.1 68.469 9.54998C68.0477 8.99998 67.1178 7.77718 66.4025 6.83268C63.5884 3.11668 62.2102 2.06689 58.9 1.11789C58.411 0.977687 56.5986 0.957987 42.55 0.940587C33.86 0.929887 26.66 0.939387 26.55 0.961687ZM57.1 6.19128C58.3474 6.50658 59.6188 7.22528 60.4109 8.06268C60.6643 8.33068 61.5393 9.42748 62.3553 10.5C64.3855 13.1683 65.1993 14.2361 66.8899 16.45C67.6879 17.495 68.5627 18.6425 68.8339 19C69.9529 20.4753 70.2367 20.6733 71.85 21.1042C72.7594 21.3471 72.9408 21.3965 74.05 21.7035C74.49 21.8252 75.255 22.0357 75.75 22.1712C76.245 22.3068 76.785 22.4547 76.95 22.5C78.2614 22.8599 79.2482 23.1282 80.45 23.4514C81.22 23.6586 82.165 23.9148 82.55 24.0208C82.935 24.1269 83.6722 24.3256 84.1882 24.4625C85.4635 24.8008 85.8888 24.9519 86.4544 25.268C87.4083 25.8012 88.056 26.721 88.353 27.9644C88.5523 28.7988 88.5517 33.2895 88.3522 34.2312C88.0025 35.8815 86.9838 37.0084 85.4345 37.4588C84.551 37.7156 84.4971 37.6797 84.2945 36.7C83.6343 33.5077 81.1526 30.5549 77.9737 29.1794C75.4086 28.0695 71.8983 27.9986 69.25 29.0031C66.8364 29.9186 64.7148 31.8148 63.4356 34.2C62.9793 35.0509 62.4 36.8397 62.4 37.3982C62.4 37.5997 62.3787 37.6 47.466 37.6H32.5321L32.4002 36.875C32.2289 35.9332 31.6864 34.5666 31.0603 33.5C30.3355 32.2653 28.678 30.6286 27.3773 29.8633C26.1511 29.1419 25.3602 28.845 23.8551 28.5412C22.047 28.1762 20.191 28.2237 18.3 28.6832C15.6283 29.3325 12.8084 31.6309 11.4817 34.2404C11.0821 35.0264 10.5 36.8222 10.5 37.2688V37.6262L9.475 37.5804C8.5744 37.5402 8.3661 37.4945 7.7588 37.2045C6.6025 36.6522 5.9044 35.7678 5.5523 34.409C5.4148 33.8782 5.3951 33.2829 5.4235 30.5162C5.4616 26.7984 5.4871 26.647 6.2496 25.6113C6.8547 24.7893 7.2102 24.5543 9.222 23.6457C10.1724 23.2165 11.4609 22.6256 12.0853 22.3327C12.7097 22.0397 13.234 21.8 13.2503 21.8C13.2855 21.8 14.8192 21.0936 15.5799 20.7271C16.3378 20.3619 16.2099 20.5416 19.7998 14.8C24.1561 7.83248 24.0096 8.04798 24.8108 7.43098C25.8256 6.64938 26.9242 6.21388 28.15 6.10728C29.5615 5.98448 56.5922 6.06288 57.1 6.19128ZM28.05 9.33868C27.775 9.46898 27.4048 9.72828 27.2274 9.91498C27.05 10.1017 26.1571 11.626 25.2432 13.3023C22.798 17.7873 22.8755 17.6203 22.8211 18.523C22.7796 19.2125 22.8035 19.3552 23.0434 19.8454C23.3582 20.4888 23.9362 21.0194 24.5867 21.2619C25.0046 21.4177 25.7174 21.4387 31.8568 21.4761C36.6198 21.5051 38.7864 21.4844 39.0725 21.4074C39.7414 21.2273 40.3978 20.7131 40.7416 20.1C41.3404 19.0321 41.0933 17.6378 40.1642 16.8425C39.3782 16.1698 39.3353 16.1643 34.3801 16.1042L29.9102 16.05L30.6212 14.75C31.6283 12.9084 31.7948 12.4761 31.7976 11.6946C31.8031 10.185 30.7216 9.10598 29.2 9.10318C28.7219 9.10228 28.4178 9.16458 28.05 9.33868ZM46.7399 9.79058C46.2017 10.035 45.6265 10.6198 45.3623 11.1911C45.1607 11.6268 45.1484 11.8282 45.1192 15.1748C45.0933 18.1311 45.1138 18.7989 45.2461 19.3156C45.455 20.1309 45.9161 20.7518 46.6 21.1388L47.15 21.45H55.2H63.25L63.6634 21.2289C64.6115 20.7218 65.1338 19.8743 65.1361 18.8393C65.138 18.0074 64.7462 17.1992 64.1301 16.7639C63.233 16.1302 63.5328 16.1562 56.7317 16.1224L50.5134 16.0915L50.4817 13.8208C50.4504 11.5752 50.447 11.5443 50.1799 11.038C49.8775 10.4648 49.4452 10.0581 48.85 9.78668C48.3113 9.54118 47.285 9.54308 46.7399 9.79058ZM45.8139 25.1106C43.8153 25.7103 43.2459 28.3222 44.823 29.6553C45.5624 30.2802 45.8486 30.3414 48.2199 30.3822C50.6934 30.4247 51.0639 30.3569 51.7995 29.7272C52.5855 29.0545 52.8952 27.9247 52.5811 26.8764C52.4131 26.3156 51.7104 25.5741 51.0779 25.2901C50.5801 25.0666 50.4245 25.0519 48.35 25.0314C47.0906 25.019 46.0063 25.0529 45.8139 25.1106ZM23.082 33.8177C24.311 34.2147 25.3523 34.9243 26.0711 35.8546C27.311 37.4593 27.7013 39.3172 27.146 40.9713C26.4268 43.1137 25.0505 44.4551 22.85 45.1582C21.3506 45.6373 19.497 45.2091 17.9108 44.0172C16.5122 42.9664 15.6001 41.1602 15.6 39.4414C15.5999 37.4657 16.8639 35.3679 18.6537 34.3737C20.2469 33.4886 21.5551 33.3244 23.082 33.8177ZM75.0278 33.8145C77.5229 34.624 79.31 36.9759 79.31 39.45C79.31 41.4681 77.968 43.6524 76.1391 44.6111C75.164 45.1222 73.9112 45.439 73.15 45.3668C70.1277 45.0803 67.5 42.3284 67.5 39.45C67.5 38.0477 68.1702 36.5389 69.3 35.3979C70.9448 33.7367 73.0199 33.1631 75.0278 33.8145Z" fill="white"/>
</svg>
