<svg width="90" height="94" viewBox="0 0 90 94" fill="none" xmlns="http://www.w3.org/2000/svg">
<path id="&#208;&#160;&#208;&#176;&#208;&#183;&#209;&#128;&#208;&#176;&#208;&#177;&#208;&#190;&#209;&#130;&#209;&#135;&#208;&#184;&#208;&#186;&#209;&#131;" fill-rule="evenodd" clip-rule="evenodd" d="M36.9889 0.153425C35.5952 0.435325 34.4751 1.04202 33.4673 2.06092C32.3837 3.15632 31.9654 4.04672 31.4288 6.40002C30.9745 8.39202 31.0039 8.26002 30.3862 11.0913L30.05 12.6327L29.5 12.8739C27.3492 13.8175 24.8098 15.2986 22.7 16.8401L22.35 17.0958L21.8 16.9032C21.4975 16.7973 20.5975 16.5063 19.8 16.2566C19.0025 16.0069 18.215 15.7603 18.05 15.7086C14.2342 14.5131 13.9371 14.4461 12.8202 14.5298C10.8775 14.6753 9.1419 15.5622 7.9691 17.0086C7.5148 17.5688 0.9438 28.8513 0.5385 29.7669C0.1515 30.6413 0 31.4146 0 32.5164C0 33.7423 0.227 34.6864 0.7771 35.7484C1.1951 36.5554 2.2692 37.676 5.0975 40.256C6.0586 41.1327 7.0168 42.0075 7.2267 42.2L7.6085 42.55L7.4919 44C7.3796 45.3973 7.4209 49.9611 7.5553 51L7.6135 51.45L5.1486 53.6979C1.8247 56.7291 1.2267 57.3637 0.7089 58.4097C0.1733 59.4915 0.00799993 60.2091 0.00359993 61.4701C-0.00090007 62.7377 0.2807 63.876 0.8383 64.845C0.9665 65.0677 1.5792 66.1275 2.1998 67.2C3.5834 69.5909 5.451 72.8269 5.7204 73.3C5.8301 73.4925 5.9989 73.785 6.0956 73.95C6.1923 74.115 6.6004 74.8125 7.0025 75.5C8.4127 77.9111 9.9916 79.0539 12.3996 79.406C13.781 79.608 13.9271 79.5726 21.2 77.2752C21.7225 77.1102 22.2175 76.9726 22.3 76.9694C22.3825 76.9663 22.9 77.2832 23.45 77.6737C24.9298 78.7244 26.4435 79.6144 28.3449 80.552L30.0398 81.3877L30.9035 85.2189C31.3786 87.326 31.803 89.1625 31.8467 89.3C32.3808 90.9816 33.844 92.6116 35.5 93.3699C36.683 93.9116 36.7165 93.9134 45.1 93.8804L52.85 93.85L53.5421 93.573C54.852 93.0489 55.8358 92.3288 56.5617 91.3632C57.4727 90.1513 57.6763 89.5918 58.3498 86.45C58.4913 85.79 58.7136 84.8 58.8437 84.25C58.9739 83.7 59.1775 82.8156 59.2962 82.2846C59.5006 81.3705 59.529 81.3126 59.831 81.1928C61.5959 80.4933 64.8749 78.5916 66.8523 77.1208L67.1546 76.8959L67.7523 77.0872C69.2131 77.5546 72.261 78.5194 73.45 78.8908C74.165 79.1142 75.0978 79.3479 75.5228 79.4103C77.6706 79.7254 80.2613 78.6866 81.5732 76.9841C81.9732 76.465 88.1916 65.8026 88.854 64.5C89.3681 63.4892 89.5353 62.7211 89.5288 61.4C89.5221 60.0306 89.2736 59.1226 88.5908 57.9722C88.0824 57.1156 87.6341 56.6577 84.3651 53.6556C82.1259 51.5991 81.8854 51.3476 81.9317 51.1118C81.96 50.9678 82.0363 49.905 82.1012 48.75C82.1984 47.0214 82.1937 46.2962 82.075 44.65C81.9956 43.55 81.9504 42.605 81.9744 42.55C81.9985 42.495 82.7679 41.7653 83.6841 40.9285C88.1822 36.8202 88.3102 36.6857 88.8977 35.4549C89.0624 35.1098 89.2731 34.5401 89.366 34.1887C89.59 33.341 89.5856 31.6695 89.3569 30.8096C89.093 29.8176 89.0337 29.7034 86.595 25.5C84.9813 22.7186 84.4901 21.8674 83.25 19.704C82.645 18.6486 81.9249 17.4848 81.6498 17.1178C80.2408 15.2384 77.4341 14.1495 75.1799 14.6077C74.8885 14.667 74.1775 14.8644 73.6 15.0464C73.0225 15.2284 71.8075 15.6108 70.9 15.8962C69.9925 16.1815 68.7775 16.567 68.2 16.7529L67.15 17.0907L66.8 16.8131C65.584 15.8488 63.1103 14.356 61.1326 13.3928C60.1283 12.9038 59.4955 12.5378 59.4634 12.4276C59.435 12.3299 59.0438 10.6075 58.5941 8.60002C58.1444 6.59252 57.6722 4.67122 57.5448 4.33032C56.8092 2.36392 55.1222 0.846125 53 0.241725C52.3969 0.0699245 51.8196 0.0552246 45 0.0381246C39.202 0.0236246 37.5104 0.0479246 36.9889 0.153425ZM51.6963 6.04812C52.0964 6.25502 52.0967 6.25582 53.1997 11.3C53.6223 13.2327 54.1277 15.4172 54.2176 15.7C54.5134 16.6302 55.2104 17.2549 56.5 17.7459C58.6866 18.5785 61.3541 20.0829 63.5531 21.7236C65.3369 23.0546 65.3418 23.0576 66.0278 23.2071C66.6938 23.3523 67.0176 23.2978 68.7 22.757C69.2775 22.5713 70.425 22.2081 71.25 21.9498C72.075 21.6915 72.9525 21.413 73.2 21.331C74.7823 20.8064 76.1803 20.4003 76.3972 20.4022C76.7582 20.4054 77.0388 20.6635 77.4279 21.35C77.615 21.68 78.0303 22.4 78.3509 22.95C78.6715 23.5 79.1666 24.355 79.4511 24.85C79.7357 25.345 80.4629 26.605 81.0672 27.65C81.6716 28.695 82.5111 30.1474 82.933 30.8776C83.8679 32.4958 83.8962 32.6983 83.275 33.3259C83.0413 33.562 82.0634 34.4741 81.1021 35.3526C76.8583 39.2309 76.3285 39.7628 76.0952 40.3791C75.8563 41.0105 75.858 41.1379 76.1436 43.95C76.3444 45.9281 76.3392 48.0453 76.1284 50.0876C75.8835 52.4606 75.8943 53.2369 76.1802 53.8174C76.4159 54.2958 77.203 55.0674 80.8531 58.3987C83.6014 60.9069 83.7 61.0117 83.7 61.427C83.7 61.7164 83.0578 62.8972 80.3875 67.518C78.5656 70.6706 76.9794 73.3277 76.8625 73.4228C76.7456 73.5178 76.5435 73.5966 76.4133 73.5978C76.2831 73.599 75.3156 73.326 74.2633 72.991C73.211 72.6561 71.5625 72.1348 70.6 71.8325C69.6375 71.5303 68.4225 71.1482 67.9 70.9833C67.1172 70.7364 66.8405 70.6932 66.3278 70.7378C65.5412 70.8063 65.3152 70.9244 63.8662 72.0249C61.5705 73.7683 59.066 75.2038 56.5612 76.2118C55.3238 76.7098 54.7346 77.1588 54.3933 77.8638C54.2037 78.2555 53.9652 79.2023 53.4019 81.8C52.8272 84.4503 52.0892 87.5201 51.9877 87.6826C51.9179 87.7943 51.755 87.934 51.6257 87.9929C51.466 88.0656 49.2463 88.1 44.7088 88.1C38.1202 88.1 38.0233 88.0971 37.7659 87.8946C37.4511 87.647 37.5187 87.8947 36.4024 82.9C35.9045 80.6725 35.4279 78.6316 35.3432 78.3647C35.0228 77.3549 34.3876 76.7282 33.2615 76.3108C31.5966 75.6937 29.1296 74.4229 27.55 73.3686C27.22 73.1484 26.365 72.5293 25.65 71.993C23.665 70.504 23.3251 70.4468 20.95 71.2021C12.4861 73.8937 13.1169 73.7208 12.7362 73.4541C12.4899 73.2816 12.5327 73.3528 8.8006 66.9C5.6898 61.5216 5.623 61.3755 6.0519 60.8948C6.1609 60.7727 7.6 59.4316 9.25 57.9147C12.9595 54.5043 13.1011 54.362 13.3937 53.7479C13.6592 53.1909 13.7082 52.2035 13.52 51.2C13.4632 50.8975 13.3636 49.7725 13.2985 48.7C13.1972 47.0327 13.2039 46.46 13.3443 44.75C13.4346 43.65 13.5491 42.4575 13.5988 42.1C13.7982 40.666 13.4854 39.9785 12.0225 38.6353C6.1214 33.2173 5.9214 33.0249 5.8491 32.6961C5.7725 32.3472 5.9741 31.9214 7.1541 29.9398C7.5644 29.2509 7.9 28.6714 7.9 28.6519C7.9 28.6324 8.1095 28.2641 8.3656 27.8333C8.7467 27.1922 10.7091 23.8064 11.1379 23.05C12.2522 21.0847 12.5607 20.6045 12.7699 20.5091C13.0642 20.375 13.4164 20.3695 13.7203 20.4943C13.8466 20.5462 14.985 20.9096 16.25 21.3018C17.515 21.6939 19.405 22.2908 20.45 22.6282C23.2112 23.5196 23.7527 23.4801 25.2712 22.2766C27.6726 20.3734 30.3571 18.8221 33.2 17.6947C34.5076 17.1762 35.1298 16.5032 35.4499 15.2612C35.561 14.8302 36.2528 11.7615 36.5006 10.6C36.6743 9.78632 37.3021 7.06362 37.3993 6.70272C37.4573 6.48712 37.6223 6.21832 37.7659 6.10542C38.0233 5.90292 38.1202 5.90002 44.7185 5.90002C50.4323 5.90002 51.4518 5.92162 51.6963 6.04812ZM42.85 25.2617C37.3875 25.8273 32.6942 28.0976 29 31.9612C25.8908 35.213 23.9173 39.2906 23.2356 43.8716C23.0368 45.2073 23.0111 48.1892 23.1871 49.5C23.4779 51.6668 24.2465 54.3486 25.0985 56.1696C27.773 61.8859 33.0778 66.2705 39.2246 67.8451C41.3218 68.3824 42.4881 68.5278 44.7 68.5278C46.9119 68.5278 48.0782 68.3824 50.1754 67.8451C56.196 66.3028 61.2843 62.1392 64.1011 56.45C65.658 53.3056 66.3439 50.3224 66.3313 46.75C66.3242 44.7557 66.1649 43.4496 65.7013 41.5864C63.6117 33.1878 56.6045 26.8011 47.9981 25.451C46.9948 25.2936 43.7087 25.1728 42.85 25.2617ZM47.5522 30.8005C53.3261 31.7869 58.1847 35.9429 60.1333 41.5622C60.8001 43.4849 60.9505 44.4734 60.9458 46.9C60.9422 48.7388 60.9093 49.1983 60.7189 50.0749C60.2324 52.3143 59.2719 54.5341 58.0254 56.3C57.2104 57.4546 55.341 59.3413 54.2307 60.1298C53.7817 60.4487 52.8494 60.9949 52.1589 61.3436C48.1684 63.3589 43.8018 63.7041 39.6 62.3364C36.1234 61.2049 33.056 58.8391 31.0232 55.7218C27.7291 50.6698 27.5077 44.154 30.4517 38.9C33.0512 34.261 37.7874 31.1593 43.1252 30.6004C44.2447 30.4832 46.2165 30.5723 47.5522 30.8005Z" fill="white"/>
</svg>
