<svg width="94" height="94" viewBox="0 0 94 94" fill="none" xmlns="http://www.w3.org/2000/svg">
<path id="&#208;&#164;&#208;&#184;&#208;&#189;&#208;&#176;&#208;&#189;&#209;&#129;&#209;&#139;" fill-rule="evenodd" clip-rule="evenodd" d="M62.9853 0.248232C62.9521 0.281332 62.3456 0.349732 61.6375 0.400132C56.8163 0.743532 51.9005 1.84813 48.2055 3.41843C43.2271 5.53413 40.227 8.28824 39.1842 11.7L38.9549 12.45L38.9241 23.325C38.9072 29.3063 38.8693 34.2 38.8398 34.2C38.8104 34.2 38.3507 34.0906 37.8182 33.9569C36.901 33.7265 35.1355 33.3941 34.0584 33.249C32.0244 32.9749 28.4933 33.0452 26.1001 33.4072C24.8269 33.5998 22.433 34.146 21.5501 34.4453C20.1609 34.9163 18.7776 35.4727 17.809 35.95C17.1952 36.2525 16.674 36.5 16.6508 36.5C16.4843 36.5 13.7002 38.3063 12.6001 39.1279C10.7661 40.4978 8.11555 43.156 6.70745 45.0379C3.68235 49.0803 1.65875 53.8569 1.00415 58.5001C0.621254 61.2159 0.571454 61.937 0.637154 63.8163C0.795554 68.3515 1.71805 72.2064 3.57655 76.1001C6.87505 83.0107 12.9753 88.5618 20.179 91.2085C23.7084 92.5051 26.7922 93.0458 30.6501 93.0444C31.8601 93.044 33.2551 92.9926 33.7501 92.9303C38.2103 92.3688 41.8189 91.1958 45.5641 89.0901L45.9782 88.8573L47.1641 89.4177C51.0871 91.2716 55.7941 92.4154 61.6001 92.9255C63.342 93.0786 68.8584 93.0786 70.6001 92.9255C81.6901 91.9508 89.7061 88.3941 92.5251 83.1974C92.9024 82.5017 93.1294 81.8485 93.3582 80.8001C93.5713 79.8239 93.5713 13.4762 93.3582 12.5C93.1294 11.4516 92.9024 10.7984 92.5251 10.1027C89.7195 4.93063 81.6603 1.34073 70.7001 0.381132C69.3839 0.265932 63.0763 0.157232 62.9853 0.248232ZM69.9001 5.80763C75.0021 6.13813 79.8453 7.31834 83.4087 9.09954C84.7987 9.79424 85.819 10.5035 86.7251 11.4048C87.9968 12.6699 88.3061 13.6758 87.7737 14.8158C86.9878 16.4988 84.49 18.2569 81.0501 19.5484C73.4495 22.4019 62.4261 22.7636 53.9501 20.4377C48.3317 18.8959 44.3668 16.1534 44.3668 13.809C44.3668 11.3585 48.6303 8.51904 54.5824 7.00533C59.2435 5.81993 64.1585 5.43563 69.9001 5.80763ZM48.0501 24.1252C52.8338 26.2057 59.4167 27.4 66.1001 27.4C70.4277 27.4 75.2234 26.8377 78.927 25.8961C80.0764 25.6038 82.7086 24.7935 83.1501 24.5959C83.2601 24.5467 83.9126 24.2621 84.6001 23.9635C85.2876 23.6648 86.3209 23.1464 86.8963 22.8115C87.4718 22.4765 87.9803 22.2402 88.0265 22.2864C88.0726 22.3325 88.0968 24.2557 88.0802 26.5601C88.0524 30.4345 88.0356 30.7839 87.8575 31.2C86.6315 34.0648 80.8056 36.8441 73.843 37.8858C69.8281 38.4865 66.3917 38.628 62.6501 38.3468C60.1139 38.1561 59.3917 38.0721 57.588 37.7579C53.5084 37.0472 49.6896 35.692 47.2501 34.0891C46.1648 33.376 45.0115 32.2089 44.6421 31.45L44.3501 30.85L44.32 26.6605C44.3034 24.3562 44.312 22.4131 44.3392 22.3424C44.3734 22.2533 44.7502 22.42 45.5693 22.8869C46.2187 23.257 47.3351 23.8142 48.0501 24.1252ZM34.2501 38.8015C39.5039 39.6063 44.1621 41.9712 47.9456 45.7546C51.7395 49.5486 54.0706 54.1476 54.9129 59.5001C55.238 61.5667 55.2386 64.7267 54.9141 66.8001C54.4078 70.0352 53.3238 73.0361 51.6938 75.7147C48.2367 81.3956 42.7238 85.4136 36.2982 86.9352C35.5018 87.1239 34.4901 87.3305 34.0501 87.3945C32.0288 87.6882 29.0965 87.6884 27.0501 87.395C26.0417 87.2504 23.518 86.6534 22.8251 86.3955C22.5364 86.288 22.0413 86.1041 21.7251 85.9867C18.8058 84.9032 15.6531 82.8393 13.257 80.4432C10.8609 78.0471 8.79696 74.8944 7.71346 71.9751C7.59606 71.6588 7.41216 71.1639 7.30466 70.8751C7.04735 70.1838 6.45015 67.6607 6.30465 66.6501C6.01155 64.6146 6.01215 61.6821 6.30615 59.6501C6.49575 58.34 7.07796 56.0362 7.54396 54.7519C10.626 46.2587 18.0946 40.0907 26.8501 38.8078C28.7407 38.5307 28.977 38.5165 31.0501 38.5543C32.2334 38.5759 33.3297 38.6606 34.2501 38.8015ZM88.0812 43.0111L88.0501 47.1501L87.7512 47.7501C87.2438 48.7684 85.8504 50.0222 84.2001 50.9454C83.5775 51.2938 83.3003 51.429 82.3001 51.8733C80.7246 52.5731 78.2955 53.3576 76.6501 53.6977C76.4301 53.7432 76.0026 53.8318 75.7001 53.8946C72.5662 54.5458 68.8491 54.856 65.2106 54.7701C62.6979 54.7108 59.5483 54.4564 59.3492 54.2966C59.2937 54.2521 59.186 53.9984 59.1098 53.7329C58.6452 52.1145 57.288 49.2298 56.1068 47.3501C55.0805 45.7169 54.2624 44.6411 52.815 43.0213C52.4077 42.5654 52.0947 42.1721 52.1195 42.1473C52.1443 42.1224 52.8814 42.2784 53.7574 42.4938C54.6334 42.7092 55.8001 42.9581 56.3501 43.0467C56.9001 43.1353 57.5526 43.2511 57.8001 43.3042C58.8859 43.5371 62.4269 43.8128 65.0624 43.8697C68.8998 43.9526 72.6295 43.6801 75.6001 43.0998C75.8476 43.0515 76.4551 42.9371 76.9501 42.8455C80.594 42.1713 84.5171 40.745 87.3716 39.0567C87.6898 38.8685 87.9866 38.75 88.0312 38.7934C88.0758 38.8367 88.0983 40.7347 88.0812 43.0111ZM24.6853 44.3365C24.0704 44.5605 23.6312 44.9748 23.2392 45.7001C23.0563 46.0387 23.0513 46.4147 23.0881 57.2157L23.126 68.3812L21.6381 68.4176C20.0087 68.4575 19.6446 68.5643 19.0865 69.1659C18.5964 69.6943 18.4585 70.0865 18.4588 70.9501C18.4592 71.8558 18.642 72.3192 19.2167 72.8708C19.7448 73.3777 20.2387 73.5001 21.7568 73.5001H23.0884L23.1193 77.0251C23.1534 80.9265 23.1627 80.9875 23.8302 81.6839C24.3521 82.2284 24.8515 82.4362 25.6501 82.4412C26.5621 82.4469 27.0002 82.2843 27.5477 81.7367C28.2692 81.0152 28.3001 80.8158 28.3001 76.8819V73.5001H33.1635C36.5651 73.5001 38.1433 73.4652 38.4143 73.384C38.9204 73.2324 39.5528 72.6839 39.8204 72.1644C39.983 71.8486 40.0334 71.5717 40.0323 71.0001C40.0301 69.8465 39.6476 69.1503 38.7501 68.6659C38.3577 68.4542 38.2551 68.4496 33.3395 68.4216L28.3289 68.3931L28.2645 67.6315C28.2291 67.2126 28.2001 66.3367 28.2001 65.685V64.5001H31.237C35.1898 64.5001 36.1018 64.3578 37.8501 63.4682C38.4462 63.1649 38.854 62.8558 39.4501 62.2556C40.7189 60.9781 41.4125 59.6187 41.8723 57.5082C42.0868 56.5235 42.1252 56.0879 42.1288 54.6001C42.1334 52.7072 41.9962 51.6925 41.5437 50.2733C40.7435 47.7638 39.3282 45.952 37.4673 45.0546C35.7806 44.2414 35.9949 44.2658 30.2001 44.2329C26.1084 44.2097 24.9751 44.2309 24.6853 44.3365ZM34.6158 49.584C35.6022 49.9737 36.2411 50.8794 36.716 52.5618C36.89 53.1782 36.9384 53.6117 36.9381 54.5501C36.9377 55.9283 36.7731 56.6583 36.2216 57.7283C35.852 58.4453 35.6229 58.6592 34.8366 59.0216C34.372 59.2357 34.2119 59.2473 31.2751 59.2795L28.2001 59.3131V54.2975V49.2821L31.1251 49.3213C33.866 49.3581 34.0857 49.3746 34.6158 49.584ZM88.0811 59.4111L88.0501 63.6501L87.7678 64.2251C86.3948 67.0211 80.8193 69.6265 73.8058 70.7495C71.4902 71.1202 69.7643 71.237 66.5001 71.2435C63.4093 71.2498 60.0855 71.0765 59.7897 70.8937C59.6924 70.8335 59.702 70.6593 59.8345 70.0836C60.4685 67.3296 60.7379 64.2737 60.5762 61.6694C60.5222 60.8001 60.5003 60.0666 60.5274 60.0394C60.5546 60.0123 61.2458 60.0414 62.0634 60.104C63.9788 60.2508 68.2277 60.2503 70.1501 60.1031C76.9394 59.5831 83.0464 57.9416 87.0501 55.5606C87.5451 55.2661 87.9865 55.0583 88.0311 55.0987C88.0756 55.139 88.0981 57.0796 88.0811 59.4111ZM88.0803 75.8103L88.0501 79.9501L87.7751 80.5373C87.4345 81.2644 86.2692 82.4521 85.1782 83.1841C82.6493 84.8809 78.4888 86.3171 74.0001 87.0429C73.1453 87.1811 72.6355 87.246 70.8001 87.4501C69.485 87.5964 66.0816 87.6622 64.1001 87.5797C60.6574 87.4364 57.3524 86.9712 54.2001 86.1862C53.1647 85.9284 51.2976 85.314 51.1223 85.1735C51.0252 85.0955 51.2892 84.7695 52.2262 83.8106C54.1675 81.8237 55.7211 79.7188 57.0497 77.2751C57.7292 76.0253 57.5218 76.1018 59.5501 76.3528C62.5692 76.7263 67.2398 76.8409 70.2067 76.6143C76.7714 76.1129 82.7021 74.5491 86.7501 72.2522C87.3001 71.9401 87.7929 71.6432 87.8451 71.5924C87.8974 71.5416 87.9784 71.5384 88.0253 71.5853C88.0721 71.6321 88.0969 73.5334 88.0803 75.8103Z" fill="white"/>
</svg>
