<svg width="94" height="79" viewBox="0 0 94 79" fill="none" xmlns="http://www.w3.org/2000/svg">
<path id="&#208;&#164;&#208;&#190;&#209;&#130;&#208;&#190;" fill-rule="evenodd" clip-rule="evenodd" d="M30.3985 0.542557C28.7221 1.00566 27.2894 2.28946 26.6615 3.89136C26.5319 4.22186 24.3999 14.5487 24.3999 14.8458C24.3999 14.8757 23.173 14.9001 21.6736 14.9001H18.9472L18.8277 14.3968C18.6167 13.5087 17.9548 12.7923 17.059 12.4826C16.3597 12.2409 11.7211 12.2155 10.9344 12.4491C9.9388 12.7448 9.1487 13.5944 9.0272 14.5001C8.9898 14.7794 8.9247 14.9003 8.8117 14.9009C8.3576 14.9032 6.7938 15.1243 6.3999 15.2419C3.475 16.1151 1.3756 18.2793 0.639802 21.1801L0.399902 22.1257L0.401402 46.8379C0.402702 68.6066 0.421002 71.6275 0.555002 72.2001C0.768802 73.1133 0.891503 73.4485 1.3128 74.2711C2.4331 76.4585 4.4266 77.9833 6.8872 78.5348C7.566 78.687 10.7477 78.7001 47.006 78.7001C89.29 78.7001 86.7333 78.7284 88.1779 78.244C89.3292 77.8579 90.5517 77.0478 91.4788 76.0567C92.653 74.8015 93.3726 73.2195 93.5958 71.4027C93.6653 70.8369 93.6993 62.6475 93.698 46.7527C93.6959 21.6016 93.7006 21.8758 93.2515 20.5501C93.0151 19.8522 92.3516 18.6355 91.916 18.1009C90.4319 16.2797 88.5712 15.264 86.2438 15.0045C85.6737 14.9409 82.2476 14.8998 77.4788 14.8994L69.6499 14.8987L68.5823 9.54166C67.6556 4.89106 67.4695 4.09006 67.1716 3.46736C66.5381 2.14326 65.2468 1.03906 63.8144 0.596457C63.1933 0.404557 62.8101 0.400257 47.0144 0.408957C34.4367 0.415957 30.7497 0.445557 30.3985 0.542557ZM62.2411 5.88586C62.2703 5.93306 62.6798 7.90186 63.1511 10.2609C63.6224 12.62 64.0317 14.6288 64.0607 14.7251C64.1107 14.8913 63.2546 14.9001 47.0566 14.9001C34.2877 14.9001 29.9999 14.8712 29.9999 14.7853C29.9999 14.6593 31.6886 6.12686 31.7534 5.92506C31.7854 5.82576 34.9212 5.80006 46.9909 5.80006C55.3493 5.80006 62.212 5.83866 62.2411 5.88586ZM86.3562 20.5677C86.6787 20.6776 87.0233 20.9105 87.3564 21.2436C88.2865 22.1737 88.1999 19.5473 88.1999 46.8195C88.1999 65.8044 88.1734 70.9888 88.0749 71.3072C87.8703 71.9684 87.3142 72.6108 86.6541 72.9483L86.0641 73.2501L47.457 73.2784C19.9942 73.2985 8.6654 73.2753 8.2106 73.198C7.0268 72.9967 6.1577 72.1675 5.9071 71.0001C5.8177 70.5837 5.7964 64.6313 5.8194 46.493L5.8499 22.5359L6.1517 21.9459C6.4873 21.2896 7.1622 20.7024 7.7799 20.5292C8.0323 20.4584 20.5006 20.4214 47.0071 20.4127C83.1207 20.401 85.899 20.4119 86.3562 20.5677ZM44.6499 26.7531C40.0254 27.3452 36.0207 29.2868 32.7963 32.5001C27.2473 38.0301 25.3993 45.9283 27.9036 53.4116C28.2735 54.517 29.3057 56.679 29.9033 57.6001C31.0294 59.3359 32.6985 61.2146 34.256 62.4995C38.1545 65.7157 43.3777 67.3743 48.4149 66.9956C53.3942 66.6212 57.8569 64.5704 61.3499 61.0514C64.3472 58.0317 66.1111 54.626 66.9701 50.2001C67.1712 49.1638 67.2542 45.7728 67.1087 44.537C66.405 38.5603 63.0667 33.1664 58.0582 29.9131C54.0391 27.3026 49.2231 26.1676 44.6499 26.7531ZM69.4026 26.7738C68.786 26.9914 67.9829 27.8116 67.7675 28.4438C67.3249 29.7427 67.8944 31.1083 69.1455 31.7483L69.7354 32.0501L74.4927 32.0795C79.5264 32.1106 79.7913 32.0913 80.4999 31.6438C82.424 30.4286 82.1508 27.5947 80.0332 26.8025C79.5166 26.6091 79.2768 26.6005 74.6711 26.608C70.5484 26.6147 69.7851 26.6388 69.4026 26.7738ZM49.2971 32.2545C53.9531 33.0096 57.9806 35.9201 60.1148 40.072C60.979 41.7533 61.3811 43.0545 61.6513 45.0437C61.8381 46.4189 61.8387 47.2728 61.6536 48.6565C60.5265 57.0839 52.7403 62.8313 44.4499 61.3553C41.3611 60.8054 38.5548 59.292 36.3407 56.982C34.5161 55.0783 33.2601 52.7463 32.6342 50.1001C32.4448 49.2991 32.3726 48.6588 32.33 47.4001C32.2352 44.6024 32.6021 42.8053 33.7487 40.4501C35.8662 36.101 39.7796 33.1349 44.4999 32.3016C45.8335 32.0662 48.0044 32.0449 49.2971 32.2545Z" fill="white"/>
</svg>
