<svg width="94" height="68" viewBox="0 0 94 68" fill="none" xmlns="http://www.w3.org/2000/svg">
<path id="&#208;&#152;&#208;&#179;&#209;&#128;&#209;&#139;" fill-rule="evenodd" clip-rule="evenodd" d="M28.2143 1.0646C25.7639 1.4442 24.648 1.6918 22.9999 2.2219C20.6349 2.9826 18.4536 4.0507 16.1999 5.5515C14.4343 6.7272 13.4559 7.5337 11.841 9.1446C8.57805 12.3996 6.50015 15.7182 4.99135 20.0845C4.01175 22.9196 4.11435 22.3043 2.34516 35.95C1.43966 42.935 0.585457 49.4939 0.447057 50.5253L0.195557 52.4007L0.396457 53.7753C0.976856 57.746 2.24376 60.3885 4.74705 62.85C5.95255 64.0354 7.25665 64.9555 8.84995 65.745C10.3385 66.4826 11.5637 66.905 13.1442 67.2256C14.633 67.5276 18.048 67.55 19.4463 67.267C21.4703 66.8573 23.2198 66.1462 24.7937 65.0934C25.7761 64.4362 27.2147 63.0837 27.8712 62.2C28.0959 61.8975 30.0368 58.185 32.1843 53.95L36.0887 46.25H46.9662H57.8436L61.7499 53.9568C63.8984 58.1956 65.8191 61.8856 66.0182 62.1568C66.5641 62.9004 68.3586 64.5966 69.1499 65.1168C70.6673 66.1145 72.4203 66.8298 74.2897 67.2142C75.7036 67.5049 78.4055 67.5742 79.8999 67.358C83.022 66.9063 85.7469 65.7319 88.0999 63.824C91.3041 61.2258 93.0636 57.8634 93.6072 53.3C93.7201 52.3514 93.7175 52.3283 91.8559 38C90.8304 30.1075 89.9253 23.3635 89.8444 23.0132C89.6232 22.0556 88.7328 19.397 88.2362 18.2118C86.2428 13.4539 82.8665 9.2336 78.5499 6.1041C75.2672 3.7242 71.4041 2.0639 67.4999 1.355C64.0496 0.7285 65.6649 0.7754 47.0977 0.7621L30.2455 0.75L28.2143 1.0646ZM64.9562 6.5504C70.3714 7.301 74.8942 9.5888 78.5737 13.4385C81.2791 16.2691 83.1624 19.6551 84.309 23.75C84.5041 24.4469 88.0999 51.7342 88.0999 52.5181C88.0999 53.1238 87.7307 54.8097 87.3992 55.7183C86.323 58.667 83.4921 60.9427 79.8724 61.7687C79.355 61.8867 78.6814 61.9329 77.4999 61.9311C76.0509 61.929 75.732 61.8974 74.8817 61.6718C73.2209 61.2312 71.9517 60.4855 70.9133 59.34C70.4482 58.827 69.8439 57.6933 66.2813 50.65C64.0278 46.195 62.0347 42.3214 61.8523 42.042C61.4754 41.465 60.7726 40.9682 60.0999 40.8034C59.7806 40.7251 55.8898 40.7013 46.6999 40.7215L33.7499 40.75L33.2499 41.0164C32.9749 41.1629 32.5822 41.4562 32.3771 41.6683C32.1037 41.9511 30.8717 44.2906 27.7515 50.4519L23.4987 58.85L22.6156 59.7064C21.5647 60.7255 20.5782 61.264 19.0447 61.6554C15.4039 62.5848 11.4009 61.5393 8.71405 58.9572C7.12215 57.4274 6.34135 55.868 5.94115 53.4191L5.78275 52.45L7.59515 38.5C8.59205 30.8275 9.47255 24.2993 9.55195 23.9928C9.80755 23.0057 10.5956 20.8009 11.0839 19.7063C13.6551 13.9442 19.0734 9.1849 25.1447 7.3557C25.7525 7.1726 26.9024 6.8959 27.6999 6.7409C29.1439 6.4603 29.172 6.4589 34.4999 6.3933C37.4424 6.357 45.2724 6.3462 51.8999 6.3691C61.4779 6.4023 64.1563 6.4395 64.9562 6.5504ZM29.6733 14.2051C29.063 14.3549 28.5454 14.665 28.1661 15.1082C27.5557 15.8213 27.4999 16.1348 27.4999 18.853V21.2704L24.9749 21.3419C22.5546 21.4104 22.4259 21.4241 21.8722 21.6716C20.8584 22.1246 20.3052 22.9808 20.3031 24.1C20.301 25.2314 20.8894 26.1318 21.9499 26.6199C22.4228 26.8375 22.5866 26.8517 24.9749 26.8812L27.4999 26.9125V29.4384C27.4999 32.3052 27.5513 32.5894 28.2036 33.3305C28.7107 33.9065 29.4489 34.2324 30.2499 34.2337C31.3154 34.2355 32.2088 33.6554 32.7107 32.6358C32.9414 32.1673 32.951 32.0572 32.9821 29.5403L33.0144 26.9306L35.481 26.8602C37.8447 26.7928 37.9717 26.779 38.5264 26.53C39.5421 26.0742 40.0946 25.2192 40.0967 24.1C40.0988 22.9686 39.5104 22.0682 38.4499 21.5801C37.9781 21.363 37.8105 21.3482 35.4824 21.3187L33.0149 21.2874L32.9824 18.7687C32.9512 16.3483 32.9406 16.231 32.7107 15.7642C32.1274 14.5792 30.8404 13.9186 29.6733 14.2051ZM62.8791 14.8354C61.2881 15.28 60.4242 16.9616 60.9675 18.5563C61.2016 19.2432 61.9866 20.0131 62.6918 20.2473C64.12 20.7217 65.6706 20.0221 66.2679 18.6338C66.5117 18.067 66.4858 17.067 66.2111 16.4393C65.6633 15.1878 64.1776 14.4726 62.8791 14.8354ZM56.3733 21.5041C55.0234 21.8391 54.1611 22.9308 54.165 24.3C54.1692 25.8035 55.2399 26.954 56.7476 27.075C57.6532 27.1477 58.3078 26.9052 58.9564 26.2565C60.6566 24.5564 59.6375 21.7064 57.2417 21.461C56.9712 21.4333 56.5805 21.4526 56.3733 21.5041ZM69.7733 21.5041C68.4234 21.8391 67.5611 22.9308 67.565 24.3C67.5692 25.8035 68.6399 26.954 70.1476 27.075C71.0532 27.1477 71.7078 26.9052 72.3564 26.2565C74.0566 24.5564 73.0375 21.7064 70.6417 21.461C70.3712 21.4333 69.9805 21.4526 69.7733 21.5041ZM62.8791 28.2354C61.2881 28.68 60.4242 30.3616 60.9675 31.9563C61.2016 32.6432 61.9866 33.4131 62.6918 33.6473C64.12 34.1217 65.6706 33.4221 66.2679 32.0338C66.5117 31.467 66.4858 30.467 66.2111 29.8393C65.6633 28.5878 64.1776 27.8726 62.8791 28.2354Z" fill="white"/>
</svg>
