<svg width="93" height="93" viewBox="0 0 93 93" fill="none" xmlns="http://www.w3.org/2000/svg">
<path id="&#208;&#147;&#209;&#128;&#208;&#176;&#209;&#132;&#208;&#184;&#208;&#186;&#208;&#176;2" fill-rule="evenodd" clip-rule="evenodd" d="M46.85 0.505589C37.9064 1.40829 30.378 4.51659 23.4 10.1877C22.1535 11.2008 19.0263 14.2995 18.039 15.5C15.4285 18.6741 13.3367 21.9974 11.8706 25.3C10.8262 27.6528 10.1667 29.5327 9.5091 32.0321C8.6759 35.1983 8.4326 37.3357 8.7387 38.8C9.2427 41.2118 11.2761 43.439 13.7 44.2339C15.0411 44.6738 16.5709 44.7231 18.0767 44.375C19.4647 44.0542 21.8822 44.0607 23.05 44.3884C23.7914 44.5965 25 45.0779 25 45.1652C25 45.1861 24.3395 46.1362 23.5323 47.2766C20.9563 50.9156 18.6587 54.3547 15.6329 59.1C14.2615 61.2506 14.2308 61.3004 12.2007 64.65C7.9218 71.7101 3.8804 79.196 2.3482 82.9C2.2003 83.2575 1.9922 83.7426 1.8858 83.9781C1.6568 84.4844 1.2092 85.751 0.888403 86.8C0.697403 87.4247 0.658403 87.7838 0.654603 88.95C0.650303 90.2434 0.668803 90.3881 0.897603 90.85C1.5741 92.2159 3.0186 92.9627 4.4781 92.701C5.3457 92.5454 6.741 91.8688 7.7171 91.1303C10.677 88.8912 15.8299 83.4811 21.5569 76.6C22.6471 75.2901 26.6496 70.3162 27.5161 69.1945C27.8276 68.7913 27.8 68.7401 28.0859 70.25C28.9894 75.0214 31.9119 79.3156 36.0454 81.9449C37.6292 82.9524 39.9102 83.8768 41.8412 84.2937C47.1981 85.4505 53.4519 85.4829 58.85 84.3818C59.4 84.2696 59.9625 84.155 60.1 84.127C62.5697 83.6246 66.4648 82.2157 69.3085 80.7961C72.4239 79.2409 74.7362 77.7346 77.8128 75.2561C79.0432 74.265 82.487 70.7399 83.6315 69.3C88.7484 62.863 91.6825 55.6982 92.7229 47.1C92.8961 45.6689 92.8933 39.7126 92.7187 38.25C92.1069 33.1237 90.8361 28.7474 88.6531 24.25C84.0652 14.7979 76.0078 7.27299 66.4 3.46759C64.7481 2.81329 64.5419 2.73939 63.0484 2.26619C61.5243 1.78329 58.7501 1.14179 57.137 0.899288C54.7555 0.541289 53.9927 0.486089 50.95 0.451289C49.19 0.431189 47.345 0.455589 46.85 0.505589ZM54.8 6.04199C57.9146 6.45359 59.6735 6.85369 62.3987 7.77049C69.1016 10.0253 74.9353 14.123 79.4062 19.717C85.3571 27.1627 88.2441 36.775 87.3481 46.1589C87.0181 49.614 86.3495 52.5267 85.1005 55.95C84.8347 56.6784 83.6671 59.2702 83.3223 59.897C81.1124 63.9145 79.3687 66.2369 76.3366 69.2011C74.0992 71.3883 72.2325 72.8455 69.65 74.4207C63.2538 78.3222 55.3935 80.2421 48.0557 79.6952C46.5728 79.5847 44.3234 79.2837 43.15 79.0387C38.0697 77.9781 34.3867 74.2068 33.3306 68.9842C33.104 67.8634 33.1022 65.1697 33.3274 64.044C33.4873 63.2445 34.0565 61.3421 34.1933 61.15C34.2325 61.095 34.439 60.6225 34.6522 60.1C34.944 59.3852 35.3909 58.6424 36.4571 57.1C40.191 51.6985 42.7451 47.5263 44.3539 44.2C44.7662 43.3475 45.1599 42.539 45.2287 42.4034C45.3321 42.1997 45.5282 42.1117 46.357 41.8971C49.2974 41.136 51.5168 39.278 53.0427 36.3C54.2322 33.9788 54.6953 31.9344 54.6983 28.9926C54.7014 25.835 54.0983 22.9695 52.6793 19.4C51.6162 16.7257 49.8846 13.5748 49.0806 12.8517C48.4578 12.2916 47.6137 12.0376 46.8904 12.1927C45.6403 12.4608 45.0731 13.0385 44.5954 14.5302C43.8054 16.9976 42.8166 19.2652 41.9344 20.6328C41.3337 21.564 40.7455 22.1251 39.45 23.0024C36.7666 24.8195 34.9716 27.2478 34.2382 30.0526C34.049 30.7762 33.9716 33.3008 34.1185 33.9551C34.1829 34.2416 34.111 34.3385 32.9316 35.5551C31.7747 36.7484 29.9925 38.7709 28.9 40.1304C28.6525 40.4383 28.3996 40.6925 28.338 40.6951C28.2764 40.6978 27.8852 40.5215 27.4686 40.3034C26.511 39.802 25.0161 39.2799 23.6844 38.9816C22.7758 38.7782 22.3945 38.7507 20.55 38.7557C18.7562 38.7606 18.3122 38.7934 17.5047 38.9807C16.2857 39.2635 15.7795 39.2583 15.1314 38.9566C14.4852 38.6557 14.0902 38.1034 14.0233 37.4071C13.9417 36.5577 14.604 33.6077 15.4506 31.05C18.6281 21.4505 25.7292 13.5076 34.9678 9.21889C35.5825 8.93349 36.1099 8.69999 36.1398 8.69999C36.1696 8.69999 36.4542 8.58089 36.772 8.43519C38.4828 7.65149 41.7155 6.76409 44.9 6.20409C47.2417 5.79229 52.2858 5.70969 54.8 6.04199ZM65.65 18.2859C63.9132 18.6873 62.6225 19.3842 61.4949 20.5294C59.9264 22.1224 59.1863 23.9651 59.1773 26.3C59.1732 27.37 59.2103 27.6756 59.4351 28.4225C60.3388 31.4252 62.7602 33.6239 65.8 34.2021C66.6054 34.3553 68.0541 34.3319 68.9272 34.1515C71.6949 33.5799 73.9983 31.5385 74.8816 28.8746C75.4586 27.1346 75.5057 25.6356 75.0347 24.0032C74.2547 21.2994 72.1068 19.1802 69.35 18.3943C68.3171 18.0998 66.6648 18.0514 65.65 18.2859ZM48.1803 22.825C48.9731 25.1503 49.298 26.9391 49.293 28.95C49.2884 30.7613 49.0939 31.8181 48.5067 33.222C47.7062 35.1359 46.5696 36.2495 45.0079 36.6498L44.3657 36.8144L43.9579 36.5276C43.7335 36.3698 43.19 35.99 42.75 35.6835C42.31 35.377 41.41 34.7465 40.75 34.2824L39.55 33.4386L39.4578 32.9005C39.347 32.2535 39.4884 31.1214 39.7519 30.5467C40.2109 29.5456 41.4171 28.1783 42.4 27.5449C44.5415 26.1649 46.0075 24.5846 47.2038 22.3667C47.4313 21.945 47.6501 21.6 47.69 21.6C47.73 21.6 47.9506 22.1512 48.1803 22.825ZM68.5102 23.8552C70.1136 24.6677 70.4105 26.9007 69.0839 28.1693C67.9771 29.2278 66.2598 29.1302 65.2207 27.9498C64.4725 27.0998 64.3493 26.0485 64.876 25.0098C65.5517 23.6777 67.1548 23.1683 68.5102 23.8552ZM38.4389 39.275C38.8854 39.5913 39.4418 39.9799 39.6753 40.1386C39.9089 40.2973 40.1 40.4742 40.1 40.5316C40.1 40.6832 39.05 42.7947 38.431 43.8878C38.139 44.4036 37.9 44.8358 37.9 44.8483C37.9 44.8608 37.5346 45.4737 37.0879 46.2105C36.6413 46.9472 36.1221 47.8079 35.9342 48.1231C35.3554 49.0943 32.2156 53.7444 30.7507 55.8C26.2122 62.1688 21.1609 68.6703 15.7944 75.05C13.3153 77.9972 8.5785 83.1973 8.1774 83.4121C7.9565 83.5303 7.9347 83.5821 9.0469 81.35C10.6433 78.1462 12.9847 73.9069 15.4811 69.7C22.2046 58.3699 29.5341 47.6475 34.5528 41.8C35.647 40.5251 37.3963 38.7 37.5241 38.7C37.5808 38.7 37.9925 38.9587 38.4389 39.275ZM69 42.7945C67.8607 43.0541 67.0449 43.3901 66.1741 43.9584C61.8539 46.7775 61.2484 52.8808 64.9294 56.5051C66.6606 58.2097 68.9783 59.0258 71.4 58.7837C72.4517 58.6785 73.1325 58.488 74.1 58.028C75.0653 57.5692 75.5083 57.2607 76.2651 56.5201C78.5978 54.2376 79.318 50.8573 78.1327 47.7546C77.5306 46.1783 76.5155 44.9271 75.0493 43.9539C73.3247 42.8092 70.9406 42.3523 69 42.7945ZM71.6675 48.2638C72.1379 48.4603 72.7763 49.0615 73.0183 49.5359C73.678 50.8291 73.0803 52.5458 71.7556 53.1626C70.2484 53.8645 68.3803 52.9851 67.9986 51.3942C67.4814 49.2381 69.624 47.4099 71.6675 48.2638ZM48.2387 58.4999C46.7316 58.7208 44.9915 59.6263 43.8688 60.774C42.859 61.8063 42.2914 62.7385 41.8438 64.1C41.5895 64.8735 41.5639 65.085 41.5593 66.45C41.5549 67.7209 41.5891 68.0729 41.7826 68.7548C42.6225 71.7142 45.2523 74.0306 48.317 74.5105C49.3194 74.6674 50.9723 74.5677 51.85 74.2972C54.5984 73.4502 56.691 71.2885 57.4619 68.5C57.7366 67.5064 57.7124 65.4074 57.4142 64.35C56.2922 60.3725 52.3989 57.8902 48.2387 58.4999ZM50.3612 63.9477C50.9673 64.1277 51.6079 64.6577 51.9757 65.2834C52.3363 65.8969 52.3583 66.9008 52.0268 67.6274C51.1268 69.6009 48.3428 69.7237 47.2381 67.8387C46.56 66.6817 46.9624 64.9812 48.081 64.2766C48.8677 63.781 49.4951 63.6905 50.3612 63.9477Z" fill="white"/>
</svg>
