<svg width="78" height="94" viewBox="0 0 78 94" fill="none" xmlns="http://www.w3.org/2000/svg">
<path id="&#208;&#154;&#208;&#184;&#208;&#189;&#208;&#190;" fill-rule="evenodd" clip-rule="evenodd" d="M17.6041 0.51151C10.4731 1.14421 4.29765 6.07201 2.05825 12.9166C1.39965 14.9297 1.25005 15.963 1.25005 18.5C1.25005 20.4545 1.28035 20.8997 1.48095 21.89C2.11885 25.0394 3.46845 27.8392 5.51775 30.2643L6.29046 31.1786L4.42025 31.2269C3.29675 31.2559 2.40335 31.3258 2.18265 31.402C1.53395 31.6261 0.878953 32.2061 0.551853 32.8463L0.250053 33.4368L0.239253 52.1434C0.233353 62.432 0.218154 71.172 0.205454 71.5656C0.168754 72.7039 0.681153 73.5651 1.72775 74.1243L2.15005 74.35L12.115 74.4L22.0799 74.45L16.8911 82.0343C11.6305 89.7235 11.4001 90.0977 11.4001 90.95C11.4001 91.5246 11.689 92.2593 12.0976 92.7234C13.1476 93.9162 14.9425 93.965 16.065 92.8312C16.2768 92.6173 19.1051 88.561 22.3501 83.8171L28.2501 75.192L28.3036 76.371C28.333 77.0194 28.3685 80.43 28.3825 83.95C28.3965 87.47 28.446 90.6467 28.4924 91.0092C28.5388 91.3718 28.6648 91.8668 28.7724 92.1092C28.9961 92.6131 29.6521 93.2468 30.1861 93.4749C30.6411 93.6692 31.6243 93.6853 32.1445 93.5069C32.7011 93.3161 33.4353 92.593 33.7037 91.9714L33.9288 91.45L33.9135 84.45C33.9052 80.6 33.8699 76.9212 33.8351 76.275C33.8002 75.6288 33.7974 75.1 33.8286 75.1C33.8599 75.1 36.555 79.002 39.8178 83.7711C43.0806 88.5401 45.9234 92.6172 46.1352 92.8311C47.2576 93.965 49.0526 93.9163 50.1026 92.7234C50.7661 91.9697 50.9514 91.0066 50.6184 90.0432C50.5057 89.7173 48.6335 86.8921 45.3709 82.1245C42.5811 78.0479 40.2722 74.6438 40.24 74.5598C40.1876 74.4233 41.2101 74.4093 49.8157 74.4285C57.6134 74.4459 59.5378 74.4245 59.91 74.3162C60.6195 74.1099 61.2978 73.5395 61.6483 72.8546L61.9501 72.2649L62.0001 68.8513L62.0501 65.4378L67.7001 67.2262C73.8168 69.1622 74.2554 69.2638 75.1788 68.9571C75.8192 68.7444 76.5159 68.1348 76.8167 67.5239L77.0501 67.05L77.0642 52.95C77.0766 40.4942 77.0603 38.7921 76.9239 38.3532C76.7103 37.6656 75.9304 36.8926 75.2085 36.6528C74.2495 36.3343 73.8579 36.4243 67.7001 38.3787C64.5926 39.365 62.0121 40.138 61.9658 40.0966C61.9194 40.0552 61.9071 38.7228 61.9384 37.1357C62.0137 33.3285 62.0164 33.4157 61.8073 32.9429C61.5827 32.4353 61.0309 31.8723 60.4724 31.5811C60.1406 31.408 59.8306 31.3519 59.0251 31.3191C58.4613 31.2961 58.0001 31.2668 58.0001 31.254C58.0001 31.2411 58.2514 30.8552 58.5585 30.3963C59.3054 29.2805 59.8415 28.1928 60.2499 26.9651C60.8545 25.1476 60.951 24.4838 60.9423 22.2C60.9348 20.2344 60.9217 20.1024 60.6242 18.9949C59.8493 16.1107 58.6497 14.0092 56.66 12.05C54.6335 10.0547 51.9965 8.69851 49.0501 8.13641C47.8275 7.90321 45.3727 7.90321 44.1501 8.13641C41.4571 8.65021 39.0821 9.79881 37.0361 11.5769L36.2221 12.2843L35.8611 11.4134C34.9875 9.30571 33.5716 7.27641 31.738 5.50411C28.7247 2.59131 24.9439 0.879109 20.6952 0.503109C19.4116 0.389509 18.9652 0.39071 17.6041 0.51151ZM21.7235 6.21011C25.8142 7.02121 29.2862 9.87961 30.8552 13.7279C31.8845 16.2527 32.0602 19.1454 31.3453 21.8C31.0188 23.0125 30.0868 24.9312 29.3274 25.954C28.5468 27.0054 26.9222 28.5199 25.8639 29.1827C24.7587 29.8748 23.1172 30.5332 21.8001 30.8125C20.4443 31.1001 18.0744 31.1216 16.8501 30.8574C11.5617 29.7163 7.72196 25.7436 6.84646 20.5074C6.60416 19.0583 6.68545 16.9419 7.03745 15.5368C8.68765 8.94941 15.0762 4.89221 21.7235 6.21011ZM48.6941 13.7074C50.3185 14.0882 51.9997 15.0669 53.1098 16.278C55.3421 18.7133 56.0319 21.9915 54.9814 25.1719C54.2315 27.4423 52.5594 29.3134 50.3501 30.3544C49.1843 30.9038 48.3973 31.1 47.0772 31.1707C44.3458 31.3169 42.0064 30.3633 40.0922 28.3235C36.0482 24.0138 37.3876 16.9329 42.7348 14.3535C44.6711 13.4195 46.582 13.2123 48.6941 13.7074ZM56.376 36.8426C56.3914 36.858 56.4144 44.0841 56.427 52.9006L56.4501 68.9307L31.1512 68.9081C17.2368 68.8957 5.83995 68.8732 5.82485 68.8581C5.77135 68.8046 5.66795 37.0278 5.72085 36.89C5.76675 36.7704 9.45386 36.7547 31.0613 36.7823C44.969 36.8001 56.3606 36.8272 56.376 36.8426ZM71.3767 52.8C71.3767 57.5025 71.3482 61.6228 71.3134 61.9562L71.2501 62.5625L66.6258 61.1062L62.0015 59.65V52.8V45.95L66.6258 44.4938L71.2501 43.0375L71.3134 43.6438C71.3482 43.9772 71.3767 48.0975 71.3767 52.8ZM14.1001 46.4876C13.1715 46.793 12.4553 47.4403 12.1392 48.2596C11.9608 48.7223 11.9501 49.112 11.9501 55.15C11.9501 61.4336 11.9539 61.5582 12.1593 62C12.4606 62.6481 12.8556 63.0741 13.4213 63.3607L13.9164 63.6116L23.7332 63.6656C33.4943 63.7192 33.5532 63.7183 34.1001 63.5118C34.8853 63.2152 35.3391 62.7985 35.7206 62.0235L36.0501 61.3542V55.0021V48.65L35.7918 48.0994C35.4921 47.4606 35.0416 46.9762 34.4809 46.6902C34.0931 46.4924 33.8786 46.4873 24.2175 46.4468C18.7904 46.424 14.2376 46.4424 14.1001 46.4876ZM26.6751 51.9664L30.5001 52.0325V55.1162V58.2H27.8665C26.418 58.2 23.4705 58.1702 21.3165 58.1338L17.4001 58.0675V54.9838V51.9L20.1251 51.9001C21.6239 51.9002 24.5713 51.93 26.6751 51.9664Z" fill="white"/>
</svg>
