<svg width="94" height="94" viewBox="0 0 94 94" fill="none" xmlns="http://www.w3.org/2000/svg">
<path id="&#208;&#156;&#209;&#131;&#208;&#183;&#209;&#139;&#208;&#186;&#208;&#176;" fill-rule="evenodd" clip-rule="evenodd" d="M22.5601 0.54119C21.8879 0.82449 21.3803 1.26929 21.0663 1.84999L20.8501 2.24999L20.824 20.325C20.8015 35.9214 20.7784 38.4 20.6549 38.4C20.5763 38.4 20.4845 38.3557 20.451 38.3015C20.2488 37.9743 17.9048 36.8553 16.7501 36.5347C15.0706 36.0684 12.7802 35.9567 11.0501 36.2567C9.3023 36.5598 7.3491 37.3564 5.7501 38.4183C4.6936 39.1199 2.9888 40.8314 2.2739 41.9083C0.877598 44.0114 0.100098 46.5051 0.100098 48.881C0.100098 52.5017 1.5387 56.0811 3.946 58.45C6.5968 61.0586 10.2695 62.3568 14.2001 62.0746C17.4373 61.8422 20.2353 60.594 22.4092 58.4125C24.2023 56.6131 25.253 54.6537 25.9282 51.85L26.145 50.95L26.174 31.4672C26.1913 19.9036 26.2398 11.9977 26.2935 12.0172C26.3687 12.0445 35.8981 25.68 37.532 28.0982C38.2205 29.1172 38.2627 29.5716 37.7583 30.5323C37.4568 31.1066 37.4008 31.3123 37.4045 31.8323C37.4145 33.2405 38.2088 34.2446 39.5324 34.5222C42.0009 35.04 44.0422 32.1638 43.6082 28.7794C43.3992 27.1496 43.1202 26.5146 41.6343 24.2873C40.8995 23.1859 39.9901 21.8494 39.6134 21.3174C39.2367 20.7853 35.9925 16.12 32.4042 10.95C28.8159 5.77999 25.7206 1.38399 25.5258 1.18119C25.0976 0.73529 24.3536 0.39869 23.6615 0.33759C23.269 0.30299 23.013 0.35029 22.5601 0.54119ZM85.4501 9.94869C82.8651 10.9696 79.4901 12.3011 77.9501 12.9076C76.4101 13.5141 75.0601 14.0534 74.9501 14.1061C74.8401 14.1587 74.2776 14.3839 73.7001 14.6065C65.4526 17.7854 55.6229 21.7274 55.3054 21.9832C55.11 22.1407 54.8151 22.4866 54.6501 22.7519L54.3501 23.2343L54.3253 46.4922C54.3116 59.284 54.28 69.8045 54.2549 69.8711C54.2254 69.9496 53.908 69.8031 53.3535 69.455C50.8776 67.9005 47.799 67.2859 44.8001 67.7474C40.4956 68.4097 36.7007 71.1699 34.8973 74.95C33.8952 77.0504 33.6506 78.1446 33.6563 80.5C33.6624 83.0127 33.9888 84.4537 35.0505 86.6552C36.7549 90.1891 39.901 92.5538 44.0397 93.4116C45.4567 93.7053 47.8398 93.7062 49.2501 93.4135C51.8581 92.8723 53.8969 91.8396 55.6733 90.1599C57.5394 88.3955 58.695 86.2953 59.4205 83.35L59.6421 82.45L59.6961 61.8333C59.7258 50.4941 59.7727 41.194 59.8004 41.1663C59.8281 41.1387 60.0306 41.0524 60.2504 40.9746C61.0299 40.6989 78.0593 34.3119 79.3001 33.8299C79.6576 33.6911 80.3551 33.4299 80.8501 33.2496C82.0796 32.8019 87.271 30.8585 87.6798 30.693C87.8061 30.6418 87.9299 30.6 87.9548 30.6C87.9797 30.6 88.0001 36.045 88.0001 42.7C88.0001 49.355 87.9821 54.8 87.9601 54.8C87.9382 54.8 87.6794 54.6377 87.3851 54.4393C86.2307 53.6609 84.6268 53.0036 82.9916 52.6387C82.0612 52.4311 79.2132 52.3971 78.4001 52.5839C78.0976 52.6533 77.6476 52.7581 77.4001 52.8166C73.3223 53.7804 69.698 56.9182 68.2218 60.7629C67.9313 61.5194 67.7322 62.2474 67.5059 63.3799C67.3516 64.1528 67.3766 66.3559 67.5521 67.4468C68.4626 73.1049 72.1259 77.0017 77.6818 78.2222C79.0659 78.5262 81.8226 78.5244 83.2214 78.2185C86.6329 77.4724 89.3631 75.6724 91.1901 72.9648C92.1326 71.568 92.8244 69.9145 93.1416 68.3C93.2335 67.8325 93.3517 67.2328 93.4044 66.9674C93.464 66.6669 93.5001 55.8666 93.5001 38.3546C93.5001 14.307 93.4795 10.1755 93.3584 9.88719C93.1129 9.30309 92.6254 8.72319 92.141 8.43939C91.768 8.22079 91.5194 8.15799 90.9118 8.12889L90.1501 8.09249L85.4501 9.94869ZM87.9978 19.825L87.9956 24.75L86.6728 25.2315C85.4656 25.6709 84.6655 25.97 82.2001 26.9036C81.7326 27.0807 81.0126 27.351 80.6001 27.5044C78.4841 28.2912 77.2007 28.771 74.6001 29.7474C73.0326 30.336 70.6701 31.221 69.3501 31.714C67.192 32.52 66.3381 32.8411 63.8001 33.8006C60.2792 35.1317 59.8251 35.2917 59.7583 35.2248C59.6725 35.139 59.6904 26.169 59.7766 26.0405C59.817 25.9802 61.0876 25.4463 62.6001 24.8539C66.8365 23.1948 73.8016 20.4453 74.1501 20.2945C74.2601 20.2469 75.7226 19.668 77.4001 19.008C79.0776 18.348 82.0926 17.1579 84.1001 16.3634C86.1076 15.5689 87.8064 14.9146 87.8751 14.9094C87.9736 14.902 87.9996 15.9455 87.9978 19.825ZM14.8793 41.756C15.8133 41.9451 17.2361 42.6188 18.0243 43.2453C20.1695 44.9503 21.2481 48.3383 20.509 51.05C19.7579 53.806 17.7062 55.8063 14.9078 56.5109C14.2078 56.6872 13.8615 56.7153 12.8578 56.6777C10.8844 56.6038 9.5005 56.0248 8.0291 54.6575C6.5092 53.2453 5.729 51.6173 5.6258 49.6432C5.4285 45.8654 7.7225 42.6778 11.2651 41.8074C12.2491 41.5656 13.8278 41.5432 14.8793 41.756ZM82.475 58.2094C84.4776 58.7131 86.2498 60.1296 87.1391 61.9375C87.7543 63.188 87.9475 64.0617 87.9489 65.6C87.9501 66.9631 87.9174 67.1487 87.4727 68.3C86.6372 70.463 84.7596 72.1574 82.483 72.8027C79.8539 73.5478 77.0367 72.8016 75.0773 70.841C73.451 69.2137 72.6547 66.9936 72.903 64.7791C73.0475 63.491 73.3576 62.5383 73.9868 61.45C74.4363 60.6726 75.6744 59.452 76.5001 58.9724C78.197 57.9868 80.4473 57.6994 82.475 58.2094ZM48.6501 73.3454C48.9801 73.4347 49.6754 73.7139 50.1952 73.9659C51.8743 74.7798 53.2857 76.4544 53.8482 78.3C54.9919 82.0519 53.3714 85.8358 49.907 87.5026C47.5969 88.6141 44.9618 88.4928 42.7618 87.1737C39.5861 85.2695 38.29 81.5181 39.5751 77.95C40.0773 76.5558 41.1693 75.1444 42.3281 74.3916C43.0699 73.9098 44.2494 73.4196 45.0898 73.2439C45.926 73.0691 47.8291 73.1234 48.6501 73.3454Z" fill="white"/>
</svg>
