<svg width="94" height="91" viewBox="0 0 94 91" fill="none" xmlns="http://www.w3.org/2000/svg">
<path id="&#208;&#157;&#208;&#190;&#208;&#178;&#208;&#190;&#209;&#129;&#209;&#130;&#208;&#184;" fill-rule="evenodd" clip-rule="evenodd" d="M2.2918 1.0366C1.5722 1.2944 0.884002 2.0151 0.617202 2.7899C0.528702 3.0472 0.500603 12.205 0.502003 40.4399C0.504003 80.2589 0.480302 78.1865 0.955302 80.0196C1.4725 82.0158 2.6259 84.1532 3.9936 85.65C6.2525 88.1224 8.8378 89.5894 12.0287 90.2098C12.9788 90.3945 14.0006 90.4 47.1051 90.4C67.8096 90.4 81.2711 90.3637 81.3766 90.3075C81.4721 90.2566 81.8827 90.1396 82.2892 90.0475C85.1997 89.3878 87.815 87.7924 89.7687 85.4848C91.5495 83.3814 92.5861 81.0922 92.9992 78.35C93.0718 77.8686 93.0962 68.997 93.0774 49.9422L93.0502 22.2343L92.747 21.744C92.4299 21.231 91.6544 20.5728 91.2101 20.4396C91.0671 20.3967 86.7541 20.3365 81.6256 20.3058L72.301 20.25L72.2756 11.65C72.2505 3.1612 72.2475 3.0442 72.041 2.6C71.7545 1.9836 71.3655 1.5469 70.8147 1.223L70.3502 0.950003L36.5002 0.929103C9.148 0.912203 2.5814 0.932803 2.2918 1.0366ZM66.5671 6.5336C66.5859 6.5524 66.6017 22.2238 66.6022 41.3589C66.6031 75.0327 66.6246 77.734 66.9032 79.05C67.2914 80.8842 68.083 82.8253 68.9468 84.061C69.1962 84.4177 69.4002 84.7299 69.4002 84.7548C69.4002 84.7797 56.8285 84.8 41.463 84.8H13.5258L12.588 84.5618C9.2837 83.7223 6.9402 81.2849 6.259 77.9792C6.1157 77.2836 6.1002 73.7643 6.1002 41.8709C6.1002 22.4352 6.1189 6.5146 6.1419 6.4917C6.1915 6.4421 66.5174 6.4839 66.5671 6.5336ZM14.7805 14.4399C13.8386 14.6935 13.0241 15.4706 12.7888 16.3404C12.6037 17.0244 12.7276 18.0291 13.0641 18.5734C13.4119 19.136 14.0528 19.6472 14.6294 19.8223C14.9652 19.9242 19.3921 19.95 36.5502 19.95H58.0502L58.5002 19.7408C60.5674 18.7799 60.8884 16.2808 59.1179 14.9305C58.2311 14.254 59.8755 14.2993 36.457 14.3067C19.6942 14.3121 15.1518 14.34 14.7805 14.4399ZM87.4782 51.5737C87.4973 69.0176 87.473 77.346 87.4018 77.7665C86.8465 81.0439 84.3082 83.7876 81.1233 84.5532C78.6215 85.1546 75.4598 83.6609 73.7078 81.05C73.1583 80.2311 72.958 79.8213 72.6078 78.8L72.3507 78.05L72.3005 52.07C72.2728 37.781 72.2817 26.0585 72.3202 26.02C72.3587 25.9815 75.7787 25.9607 79.9202 25.9737L87.4502 25.9974L87.4782 51.5737ZM14.4331 26.6093C14.1487 26.7186 13.7364 26.9824 13.5169 27.1954C13.1496 27.5519 13.036 27.7407 12.7143 28.5297C12.6313 28.7332 12.6002 31.7754 12.6002 39.701C12.6002 50.5903 12.6002 50.5926 12.8145 51.1653C13.0909 51.9041 13.7769 52.6051 14.4465 52.8333C14.8917 52.985 15.9323 52.9999 25.993 52.999L37.0502 52.998L37.5523 52.7642C38.1904 52.4671 38.6673 51.9902 38.9644 51.3521L39.1982 50.85L39.197 39.7C39.1958 28.7022 39.193 28.5439 38.9923 28.1C38.7601 27.5863 38.2887 27.0581 37.8502 26.8201C37.0639 26.3934 37.3368 26.4028 25.9002 26.4067C15.2163 26.4103 14.9376 26.4153 14.4331 26.6093ZM47.4122 31.1171C46.4355 31.4922 45.6002 32.6677 45.6002 33.6671C45.6002 34.4781 46.0834 35.4482 46.7348 35.945C47.4572 36.4961 47.5026 36.5001 52.9878 36.499L58.0502 36.498L58.5523 36.2642C59.2026 35.9614 59.673 35.4835 59.9793 34.8145C60.1902 34.3538 60.2184 34.1732 60.1777 33.54C60.1205 32.6481 59.7931 32.0417 59.0776 31.5018C58.2783 30.8988 58.2851 30.8995 52.8768 30.9052C48.1444 30.9102 47.929 30.9186 47.4122 31.1171ZM33.6002 39.7006V47.4012L25.9252 47.3756L18.2502 47.35L18.2243 39.8C18.2101 35.6475 18.22 32.1938 18.2462 32.125C18.2838 32.0265 19.9167 32 25.9471 32H33.6002V39.7006ZM47.4087 43.1184C46.4242 43.4964 45.6002 44.6577 45.6002 45.6671C45.6002 46.4781 46.0834 47.4482 46.7348 47.945C47.4567 48.4956 47.5055 48.5 52.9599 48.5H57.9945L58.5237 48.266C59.8329 47.687 60.4853 46.2806 60.0956 44.8775C59.8763 44.0879 59.0134 43.2678 58.1386 43.0177C57.847 42.9343 56.3017 42.9015 52.8386 42.9052C48.135 42.9102 47.9297 42.9183 47.4087 43.1184ZM14.7002 59.52C14.5627 59.5789 14.3152 59.6856 14.1502 59.7569C13.6917 59.9552 13.1955 60.4922 12.9223 61.0857C12.7078 61.5517 12.6823 61.7208 12.7259 62.3857C12.7546 62.8239 12.85 63.2921 12.9494 63.483C13.2163 63.9954 13.7768 64.5007 14.3689 64.7625L14.9059 65H36.4638H58.0216L58.6532 64.6986C59.5823 64.2552 60.1203 63.5107 60.2628 62.4716C60.407 61.4193 59.6814 60.1837 58.6209 59.6755L58.1502 59.45L36.5502 59.4314C21.3673 59.4183 14.8759 59.4446 14.7002 59.52ZM14.7002 71.4372C13.8172 71.7302 13.1551 72.3378 12.8511 73.1337C12.581 73.841 12.6768 74.9469 13.0623 75.5704C13.41 76.1329 14.0608 76.6548 14.5934 76.7982C14.8548 76.8685 21.939 76.8935 36.6721 76.8759L58.3659 76.85L58.8546 76.5479C59.4825 76.1596 59.9552 75.5352 60.1639 74.8184C60.5722 73.4162 59.6647 71.8806 58.1595 71.4265C57.5841 71.2529 15.224 71.2633 14.7002 71.4372Z" fill="white"/>
</svg>
