<svg width="94" height="94" viewBox="0 0 94 94" fill="none" xmlns="http://www.w3.org/2000/svg">
<path id="&#208;&#157;&#208;&#181;&#208;&#180;&#208;&#178;&#208;&#184;&#208;&#182;&#208;&#184;&#208;&#188;&#208;&#190;&#209;&#129;&#209;&#130;&#209;&#140;" fill-rule="evenodd" clip-rule="evenodd" d="M9.37905 0.339694C8.73875 0.512794 8.12225 0.959394 7.77985 1.49849C7.32795 2.20979 7.25845 2.60939 7.39655 3.70339C7.46275 4.22779 7.49225 5.01529 7.46205 5.45339C7.43195 5.89149 7.37785 17.7025 7.34185 31.7C7.30595 45.6975 7.25955 57.24 7.23895 57.35C7.21835 57.46 7.19115 63.2875 7.17845 70.3C7.16575 77.3125 7.14135 84.2058 7.12435 85.6185L7.09335 88.187L4.72155 88.2185C2.49395 88.2481 2.31945 88.264 1.84985 88.4801C-0.356851 89.4958 -0.356851 92.4042 1.84985 93.4199L2.34985 93.65L46.7985 93.6269C87.9241 93.6055 91.2866 93.5913 91.7757 93.4375C92.8864 93.0881 93.636 92.0412 93.6283 90.85C93.6236 90.1217 93.4406 89.6564 92.9413 89.1038C92.1802 88.2613 91.4914 88.105 88.5254 88.102L86.6009 88.1L86.5754 52.425L86.5498 16.75L86.2396 16.2C86.0689 15.8975 85.7407 15.5049 85.5102 15.3276C84.6512 14.6669 85.4208 14.7 70.9316 14.7H57.7998L57.7846 10.225C57.7647 4.35359 57.7652 4.20079 57.8108 3.14999C57.8475 2.30399 57.8321 2.21809 57.5549 1.71759C57.2388 1.14699 56.7509 0.702694 56.1336 0.423594C55.7732 0.260594 54.3479 0.248894 32.7998 0.231194C14.4887 0.216194 9.75465 0.238094 9.37905 0.339694ZM52.2452 5.82499C52.2667 5.89379 52.3104 14.41 52.3423 24.75C52.4071 45.7883 52.4723 61.8042 52.5575 77.575L52.6149 88.2H47.0073H41.3998L41.3908 86.825C41.3858 86.0688 41.3471 82.795 41.3048 79.55C41.218 72.8995 41.2418 73.102 40.4435 72.2142C40.1832 71.9246 39.7917 71.6304 39.4777 71.4886L38.9498 71.25H32.5498C26.5118 71.25 26.1221 71.2607 25.6594 71.4391C25.0242 71.6842 24.4503 72.2091 24.1237 72.8437C23.888 73.3018 23.8562 73.5023 23.7898 74.95C23.7494 75.83 23.7125 78.26 23.7078 80.35C23.7031 82.44 23.6698 85.0612 23.6337 86.175L23.5681 88.2H18.0764H12.5847L12.6421 77.575C12.7273 61.8042 12.7925 45.7883 12.8573 24.75C12.8892 14.41 12.9329 5.89379 12.9544 5.82499C13.0119 5.64119 52.1877 5.64119 52.2452 5.82499ZM22.6104 15.4372C22.5299 15.5342 22.5043 16.363 22.5231 18.2622L22.5498 20.95H25.3498H28.1498L28.1765 18.2622C28.1953 16.363 28.1697 15.5342 28.0892 15.4372C27.998 15.3273 27.4531 15.3 25.3498 15.3C23.2465 15.3 22.7016 15.3273 22.6104 15.4372ZM37.1456 15.5249C37.1185 15.5954 37.1084 16.8449 37.1231 18.3016L37.1498 20.95H39.8498H42.5498V18.2V15.45L39.8723 15.4234C37.7674 15.4024 37.1843 15.4241 37.1456 15.5249ZM81.1198 54.075C81.1034 72.7062 81.071 88.0063 81.048 88.075C81.0148 88.174 78.6271 88.2 69.5562 88.2H58.1064L58.0754 85.625C58.0584 84.2087 58.0346 78.01 58.0225 71.85C58.0104 65.69 57.978 58.535 57.9505 55.95C57.923 53.365 57.8767 44.2638 57.8476 35.725L57.7947 20.2H69.4722H81.1498L81.1198 54.075ZM65.9456 29.8249C65.9185 29.8954 65.9084 31.1449 65.9231 32.6016L65.9498 35.25H68.6498H71.3498V32.5V29.75L68.6723 29.7234C66.5674 29.7024 65.9843 29.7241 65.9456 29.8249ZM22.568 29.9651C22.4393 30.0938 22.4887 35.3489 22.6198 35.48C22.8055 35.6657 27.9342 35.6496 28.0892 35.4628C28.1697 35.3658 28.1953 34.537 28.1765 32.6378L28.1498 29.95L25.393 29.9235C23.8768 29.9088 22.6055 29.9276 22.568 29.9651ZM37.1456 30.0249C37.1186 30.0953 37.1084 31.3673 37.1231 32.8515L37.1498 35.55H39.8498H42.5498V32.75V29.95L39.8723 29.9234C37.7682 29.9024 37.1843 29.9242 37.1456 30.0249ZM22.568 44.2651C22.4393 44.3938 22.4887 49.6489 22.6198 49.78C22.8055 49.9657 27.9342 49.9496 28.0892 49.7628C28.1697 49.6658 28.1953 48.837 28.1765 46.9378L28.1498 44.25L25.393 44.2235C23.8768 44.2088 22.6055 44.2276 22.568 44.2651ZM37.1456 44.3249C37.1185 44.3954 37.1084 45.6449 37.1231 47.1016L37.1498 49.75H39.8498H42.5498V47V44.25L39.8723 44.2234C37.7674 44.2024 37.1843 44.2241 37.1456 44.3249ZM65.9456 44.3249C65.9186 44.3953 65.9084 45.6673 65.9231 47.1515L65.9498 49.85H68.6498H71.3498V47.05V44.25L68.6723 44.2234C66.5682 44.2024 65.9843 44.2242 65.9456 44.3249ZM65.9456 58.6249C65.9185 58.6954 65.9084 59.9449 65.9231 61.4016L65.9498 64.05H68.6498H71.3498V61.3V58.55L68.6723 58.5234C66.5674 58.5024 65.9843 58.5241 65.9456 58.6249ZM22.6104 58.8372C22.5299 58.9342 22.5043 59.763 22.5231 61.6622L22.5498 64.35H25.3498H28.1498L28.1765 61.6622C28.1953 59.763 28.1697 58.9342 28.0892 58.8372C27.998 58.7273 27.4531 58.7 25.3498 58.7C23.2465 58.7 22.7016 58.7273 22.6104 58.8372ZM37.1456 58.9249C37.1185 58.9954 37.1084 60.2449 37.1231 61.7016L37.1498 64.35H39.8498H42.5498V61.6V58.85L39.8723 58.8234C37.7674 58.8024 37.1843 58.8241 37.1456 58.9249ZM65.9456 73.2249C65.9185 73.2954 65.9084 74.5449 65.9231 76.0016L65.9498 78.65H68.6498H71.3498V75.9V73.15L68.6723 73.1234C66.5674 73.1024 65.9843 73.1241 65.9456 73.2249ZM35.7999 78.175C35.8 78.9862 35.8298 81.5737 35.8662 83.925L35.9324 88.2H32.5H29.0675L29.1337 85.1837C29.17 83.5248 29.1998 80.9373 29.1998 79.4337V76.7H32.4998H35.7998L35.7999 78.175Z" fill="white"/>
</svg>
