<svg width="94" height="94" viewBox="0 0 94 94" fill="none" xmlns="http://www.w3.org/2000/svg">
<path id="&#208;&#163;&#209;&#129;&#208;&#187;&#209;&#131;&#208;&#179;&#208;&#184;" fill-rule="evenodd" clip-rule="evenodd" d="M47.6 0.790636C46.4569 1.04394 45.9127 1.23684 44.8672 1.75964C43.7018 2.34234 42.8957 2.92864 41.925 3.89934C40.0685 5.75574 38.9997 7.98284 38.7033 10.6123C38.3998 13.3044 39.3728 16.4664 41.1199 18.4661C41.7921 19.2355 41.827 19.1166 40.7125 19.8516C36.9999 22.2996 34.4593 26.0278 33.5471 30.3662C33.3084 31.5013 33.2711 31.9407 33.2252 34.1591C33.1804 36.3277 33.196 36.7362 33.34 37.17C33.5656 37.8491 34.0882 38.4304 34.7776 38.7689L35.35 39.05H49.6H63.85L64.3727 38.8137C65.0084 38.5262 65.6072 37.8997 65.8475 37.2704C66.0084 36.8491 66.0211 36.5307 65.9746 34.0762C65.9173 31.0536 65.8311 30.4678 65.1321 28.35C63.9714 24.8336 61.4302 21.5684 58.375 19.6679C57.9487 19.4027 57.6 19.1692 57.6 19.149C57.6 19.1287 57.7878 18.8957 58.0174 18.6311C60.01 16.3343 60.9601 12.9639 60.4503 10C60.2624 8.90764 60.1781 8.57024 59.9205 7.88184C59.1696 5.87484 57.9328 4.16084 56.3153 2.88544C55.394 2.15894 53.4244 1.18234 52.3 0.894436C51.0751 0.580736 48.7768 0.530035 47.6 0.790636ZM51.2313 6.28454C52.121 6.57804 52.7608 6.97194 53.4222 7.63334C54.5226 8.73374 55.1 10.1148 55.1 11.6463C55.1 14.6593 52.7162 17.0406 49.7 17.0406C46.5312 17.0406 43.9242 14.3774 44.1295 11.35C44.3065 8.74094 46.2765 6.56954 48.897 6.09514C49.5027 5.98554 50.5932 6.07394 51.2313 6.28454ZM50.75 22.5999C55.7456 23.1455 59.582 26.8167 60.4426 31.875C60.5292 32.3838 60.6 32.9801 60.6 33.2V33.6H49.6559C43.6366 33.6 38.6879 33.5614 38.6588 33.5142C38.5892 33.4016 38.7668 31.775 38.9115 31.2C39.2907 29.693 39.9628 28.2659 40.8501 27.0837C42.8076 24.4755 45.6204 22.8973 48.9 22.5672C49.5871 22.4981 49.8618 22.5029 50.75 22.5999ZM83.7 44.6357C81.8277 45.0015 80.6323 45.6718 79.0447 47.246C78.0258 48.2563 71.4437 55.2857 71.2792 55.5392C71.1755 55.6989 71.0461 55.5311 70.812 54.9336C69.9249 52.6692 67.6281 50.759 65.05 50.1416C64.3158 49.9658 63.8718 49.9513 59.65 49.9664C57.12 49.9754 53.6096 50.0119 51.8491 50.0476L48.6482 50.1124L48.0064 49.5973C45.977 47.9686 44.226 47.088 41.75 46.451C39.5013 45.8725 38.2082 45.75 34.35 45.75C30.673 45.75 29.8177 45.8178 27.3954 46.301C22.9567 47.1864 19.7462 48.7689 16.6652 51.5899C16.1785 52.0354 15.751 52.3998 15.7152 52.3997C15.6793 52.3995 15.515 52.147 15.35 51.8387C15.185 51.5304 14.8153 51.0628 14.5286 50.7997C13.6847 50.0254 12.7012 49.8141 11.65 50.1811C11.375 50.2771 9.6425 51.2379 7.8 52.3162C5.9575 53.3944 4.045 54.493 3.55 54.7576C1.6617 55.7667 1.4796 55.8753 1.1432 56.1925C0.9531 56.3718 0.6744 56.7281 0.5238 56.9843C0.283 57.3938 0.25 57.5532 0.25 58.3059C0.25 59.0946 0.2784 59.2162 0.6116 59.8559C1.088 60.7704 4.1363 66.6928 5.4983 69.35C6.0903 70.505 7.1291 72.53 7.8066 73.85C8.4842 75.17 10.8456 79.85 13.0541 84.25C17.3973 92.9027 17.3783 92.8705 18.4434 93.3912C19.1951 93.7587 20.1905 93.7937 20.9554 93.4796C21.2824 93.3453 23.6875 91.9879 26.3 90.4631C31.5823 87.3802 31.8551 87.1792 32.1539 86.1512C32.3876 85.3475 32.2883 84.749 31.7436 83.6776C31.4996 83.1977 31.3 82.7604 31.3 82.7058C31.3 82.6406 37.1782 82.5948 48.425 82.5723L65.55 82.5382L66.8 82.2802C68.9206 81.8425 71.3281 80.9331 73.0225 79.9298C74.6027 78.9941 76.5029 77.4177 77.6208 76.1151C78.5357 75.0491 91.5992 57.6223 92.0743 56.8342C93.9414 53.7366 93.496 49.6268 91.0157 47.066C89.983 45.9998 88.5505 45.1703 87.1041 44.801C86.0804 44.5397 84.5676 44.4662 83.7 44.6357ZM86.1622 50.2007C86.7692 50.461 87.3459 51.0314 87.6006 51.6236C87.8889 52.2938 87.8351 53.2895 87.4758 53.9307C87.3465 54.1613 84.1977 58.4056 80.4783 63.3625C76.0167 69.3085 73.4664 72.6215 72.9829 73.0995C70.9181 75.1407 68.4583 76.4193 65.55 76.963C64.596 77.1414 63.7355 77.1496 46.85 77.1417C37.115 77.1371 28.9834 77.1275 28.7798 77.1204C28.5119 77.1111 28.3693 77.0443 28.264 76.8788C27.9768 76.4275 18.2957 57.5633 18.3226 57.5073C18.4303 57.2823 21.121 54.8093 21.7963 54.3146C22.7619 53.6073 24.2066 52.8403 25.4121 52.3949C28.2224 51.3565 32.3197 50.8608 36.15 51.0958C40.6945 51.3745 42.7204 52.0931 45.2914 54.338C46.0344 54.9867 46.5434 55.2565 47.2921 55.3985C47.6262 55.4619 50.8562 55.5002 55.8886 55.5006C60.8106 55.5009 64.0863 55.539 64.3 55.5985C64.7734 55.7302 65.3439 56.2187 65.6658 56.7679C66.0348 57.3975 66.1086 58.4756 65.8265 59.1134C65.5438 59.7525 65.029 60.2956 64.4507 60.5649L63.95 60.798L56.6799 60.799C49.2827 60.8 48.6764 60.827 48.101 61.1814C47.6565 61.4552 47.188 61.9396 46.9708 62.35C46.6704 62.9175 46.6704 64.1825 46.9708 64.75C47.3254 65.4201 47.9773 65.9371 48.7899 66.193C49.0199 66.2654 51.7374 66.2994 57.1899 66.2981C65.8494 66.296 66.3993 66.2691 67.85 65.7781C69.6119 65.1817 70.4186 64.4722 75.1585 59.35C76.5836 57.81 78.1096 56.1669 78.5498 55.6987C78.9899 55.2305 80.249 53.8858 81.3478 52.7106C82.4466 51.5353 83.5079 50.4713 83.7063 50.346C84.4171 49.8973 85.3289 49.8434 86.1622 50.2007ZM12.2797 57.675C14.1579 61.1341 26.0092 84.3305 25.9352 84.4027C25.7239 84.6088 23.0355 86.1 22.8753 86.1C22.7767 86.1 22.2928 86.3025 21.8 86.55C21.3072 86.7975 20.8459 87 20.775 87C20.704 87 20.3899 86.4938 20.0769 85.875C18.1703 82.1062 15.4861 76.8678 14.5813 75.15C13.0035 72.1544 8.9364 64.2079 8.5559 63.3771C7.9028 61.9511 7.7265 61.5467 7.6506 61.3C7.6083 61.1625 7.3996 60.7022 7.1868 60.2772C6.9741 59.8522 6.803 59.4472 6.8066 59.3772C6.8102 59.3072 7.2715 59.0295 7.8316 58.7599C8.3917 58.4904 9.0381 58.1416 9.268 57.9849C9.4979 57.8282 9.7272 57.7 9.7775 57.7C9.8278 57.7 9.9547 57.6033 10.0595 57.485C10.2023 57.3239 11.4474 56.4323 11.5687 56.4043C11.579 56.4019 11.899 56.9737 12.2797 57.675Z" fill="white"/>
</svg>
