<svg width="94" height="76" viewBox="0 0 94 76" fill="none" xmlns="http://www.w3.org/2000/svg">
<path id="&#208;&#158;&#208;&#177;&#209;&#137;&#208;&#181;&#208;&#189;&#208;&#184;&#208;&#181;" fill-rule="evenodd" clip-rule="evenodd" d="M11.4137 0.955988C10.1923 1.17889 9.20828 1.49859 8.02668 2.05619C6.46658 2.79249 5.30778 3.61789 4.11968 4.83899C2.66078 6.33849 1.64548 7.97929 1.06618 9.77389C0.833181 10.4958 0.75058 10.8351 0.50588 12.075C0.35398 12.8445 0.32128 40.5342 0.47158 41.15C0.538681 41.425 0.68328 42.0456 0.79298 42.5292C1.31848 44.8461 2.59888 47.034 4.46268 48.8C6.22258 50.4675 8.14008 51.5152 10.6746 52.1942L11.0996 52.308V56.8957C11.0996 61.3065 11.1076 61.5021 11.3058 61.9667C11.7405 62.9857 12.6908 63.6008 13.8275 63.599C14.9718 63.5972 14.9252 63.6358 20.7996 57.8123L26.1496 52.5086L31.9227 52.5043L37.6958 52.5L37.7424 52.725C37.7681 52.8487 37.8119 53.715 37.8399 54.65C37.891 56.3554 37.9718 56.8594 38.4033 58.1664C39.4972 61.4798 42.5649 64.4121 46.0783 65.5026C47.8858 66.0637 47.3218 66.0398 59.5996 66.0744L70.9496 66.1063L75.4996 70.6483C78.9309 74.0735 80.1602 75.2401 80.4996 75.3929C81.1221 75.6733 82.1476 75.6725 82.7461 75.3911C83.2244 75.1663 83.9292 74.4689 84.1274 74.0242C84.214 73.8299 84.2642 72.5995 84.2996 69.8038L84.3496 65.8575L84.5996 65.7384C84.7371 65.6729 85.1646 65.5205 85.5496 65.3998C86.4622 65.1138 87.9774 64.3224 88.8534 63.6743C90.9339 62.1351 92.6328 59.6372 93.1986 57.2859C93.5938 55.6436 93.5996 55.4232 93.5996 42.128C93.5996 33.4323 93.5653 29.1371 93.4934 28.8193C93.235 27.6772 93.1622 27.407 92.922 26.7C92.3798 25.1038 91.4233 23.6002 90.1539 22.3486C88.1837 20.4059 85.9408 19.3056 83.1304 18.903C82.679 18.8384 79.025 18.8 73.3156 18.8H64.2199L64.1715 15.525C64.1196 12.0072 64.0681 11.5894 63.4542 9.69999C62.8789 7.92949 61.7722 6.17389 60.2999 4.69619C58.4074 2.79679 56.1436 1.58339 53.4833 1.04269L52.2894 0.799988L32.2195 0.810788C15.8874 0.819588 12.0125 0.846688 11.4137 0.955988ZM53.0196 6.52309C55.2788 7.23229 57.0082 8.67969 57.9503 10.65C58.6286 12.0684 58.5879 11.1013 58.6203 26.6C58.6533 42.4023 58.7121 41.1013 57.8911 42.7354C56.8416 44.8244 55.1297 46.1757 52.6496 46.8727C52.1043 47.026 50.7777 47.0463 38.0996 47.0957L24.1496 47.15L23.6996 47.3865C23.412 47.5376 22.0511 48.8161 19.9283 50.9294C17.7525 53.0955 16.5896 54.1865 16.5563 54.0929C16.5284 54.0143 16.493 52.825 16.4776 51.45L16.4496 48.95L16.1766 48.4855C15.6223 47.5426 15.0178 47.2269 13.4996 47.0871C12.1771 46.9654 11.3422 46.7646 10.4374 46.3507C8.42088 45.4282 6.93738 43.8145 6.22538 41.769C5.99928 41.1196 5.96698 40.8226 5.89078 38.7C5.84188 37.336 5.85338 31.273 5.91808 24.25L6.02968 12.15L6.25268 11.481C6.98288 9.29009 8.85698 7.44169 11.1496 6.65109C12.437 6.20719 12.0134 6.21539 32.5996 6.23319L52.1496 6.24999L53.0196 6.52309ZM15.6325 23.2032C14.5214 23.6434 13.7702 24.7773 13.7702 26.0141C13.7702 26.5784 13.8251 26.8075 14.0884 27.3424C14.6029 28.3875 15.4051 28.9074 16.6139 28.9791C17.2735 29.0182 17.4522 28.9906 17.9185 28.7771C18.6649 28.4354 19.1423 27.9867 19.4706 27.3182C19.7006 26.8497 19.7496 26.6184 19.7496 26C19.7496 24.7752 19.1808 23.8545 18.0718 23.284C17.4582 22.9684 16.3203 22.9307 15.6325 23.2032ZM31.3001 23.1684C30.6431 23.409 29.7789 24.3096 29.5533 24.9889C29.3352 25.6454 29.3797 26.7766 29.6442 27.3C29.9443 27.8938 30.6939 28.5835 31.2758 28.8012C31.9285 29.0454 32.794 29.0578 33.4568 28.8324C34.127 28.6045 35.0041 27.7274 35.232 27.0572C35.7305 25.5912 35.1082 24.0242 33.7496 23.3247C33.1073 22.994 31.974 22.9217 31.3001 23.1684ZM47.1996 23.0935C46.3687 23.3472 45.6983 23.9102 45.2866 24.7C45.0941 25.0692 45.052 25.3025 45.0522 26C45.0524 26.7286 45.0908 26.9232 45.3213 27.3623C45.9071 28.4786 46.9593 29.0616 48.2375 28.9781C49.3823 28.9034 50.2798 28.2916 50.761 27.2581C51.0918 26.5478 51.093 25.4548 50.7639 24.748C50.4722 24.1215 49.6541 23.3715 49.0312 23.1592C48.5461 22.9939 47.6332 22.9612 47.1996 23.0935ZM83.1299 24.4605C85.0384 24.8862 86.6765 26.1596 87.49 27.85C88.0751 29.0656 88.0402 28.2103 88.0747 42.1691C88.1095 56.2169 88.1285 55.6751 87.558 56.9223C87.0013 58.1394 85.9196 59.237 84.6496 59.8735C83.8248 60.2869 83.1276 60.4711 81.9238 60.5936C81.3596 60.651 80.7488 60.7603 80.5665 60.8365C80.0933 61.0342 79.5356 61.5532 79.2208 62.0887C78.9568 62.5377 78.9487 62.5987 78.9167 64.375C78.8985 65.3787 78.8554 66.2 78.8208 66.2C78.7863 66.2 77.6086 65.058 76.2038 63.6622C74.6332 62.1016 73.4763 61.033 73.1996 60.8872L72.7496 60.65L60.5496 60.5998L48.3496 60.5495L47.6161 60.2818C45.8233 59.6275 44.4737 58.4161 43.7238 56.7883C43.3741 56.0292 43.1888 54.8729 43.2208 53.65L43.2496 52.55L48.0496 52.4933C53.2052 52.4324 53.3449 52.4195 55.0675 51.8454C57.8601 50.9148 60.3392 49.0322 61.9282 46.6355C62.9698 45.0643 63.4732 43.8645 63.9219 41.8833C64.126 40.982 64.1345 40.6644 64.1712 32.625L64.2092 24.3H73.3096C81.2986 24.3 82.498 24.3196 83.1299 24.4605Z" fill="white"/>
</svg>
