<svg width="94" height="83" viewBox="0 0 94 83" fill="none" xmlns="http://www.w3.org/2000/svg">
<path id="&#208;&#163;&#209;&#135;&#208;&#181;&#208;&#177;&#208;&#176;" fill-rule="evenodd" clip-rule="evenodd" d="M45.5 0.326249C45.1975 0.454049 35.2075 5.58585 23.3 11.7303C2.47936 22.4738 1.62996 22.9229 1.12866 23.4516C-0.172539 24.8239 0.0826612 26.9 1.68276 27.9593C1.93966 28.1295 5.45746 29.9707 9.49996 32.0509C13.5425 34.1311 16.8655 35.8449 16.8844 35.8593C16.9034 35.8737 16.9034 39.1626 16.8844 43.1678C16.8655 47.173 16.85 51.711 16.85 53.2523V56.0546L17.1805 56.7257C17.5453 57.4665 17.9871 57.9003 19.8606 59.3573C22.181 61.1617 24.3683 62.6127 26.3452 63.6591L27.4 64.2173V69.8936V75.5698L26.3873 77.2599C25.0707 79.4571 25.0044 79.6077 25.0044 80.4C25.0044 81.1615 25.2158 81.7002 25.6991 82.1704C26.3279 82.782 26.5466 82.8337 28.9 82.9273C30.0825 82.9743 31.5342 82.9928 32.126 82.9684C33.059 82.9299 33.2784 82.8858 33.776 82.637C34.4866 82.2817 34.9389 81.7091 35.1088 80.9495C35.3052 80.0723 35.1439 79.6046 33.9458 77.576L32.898 75.8021L32.924 71.1161L32.95 66.4302L34.0778 66.7607C40.5362 68.6534 48.5409 69.0562 55.6 67.8438C59.8929 67.1065 64.0568 65.6906 67.5391 63.784C69.1457 62.9043 72.1308 60.8934 73.75 59.6001C76.0823 57.7371 76.5706 57.1781 76.7901 56.1201C76.8656 55.7558 76.9 52.5179 76.9 45.7626V35.9351L84.4511 32.0425C88.6042 29.9016 92.211 27.9925 92.4662 27.8C93.1189 27.3077 93.5151 26.5635 93.575 25.7175C93.6595 24.5241 93.2234 23.5972 92.2895 22.9851C91.8799 22.7167 54.2083 3.22805 49.1 0.641849C48.17 0.171049 48.1279 0.160249 47.1 0.127349C46.1795 0.0978492 45.9821 0.122449 45.5 0.326249ZM66.1406 15.5922C76.6264 21.0053 85.1707 25.4645 85.1278 25.5015C85.085 25.5384 76.4804 29.9889 66.0065 35.3913C52.0771 42.5761 46.918 45.192 46.7955 45.132C46.7034 45.0869 43.5372 43.4528 39.7596 41.5007L32.8912 37.9514L32.9206 37.4643L32.95 36.9771L41 31.9856C49.7861 26.5376 49.9343 26.4317 50.2463 25.3811C50.4403 24.7278 50.4392 24.4687 50.2392 23.7932C50.0158 23.0383 49.2617 22.2842 48.5068 22.0608C47.8173 21.8567 47.378 21.8618 46.75 22.0812C46.1984 22.2739 29.3202 32.7056 28.6 33.2989C28.2166 33.6147 27.6654 34.4538 27.4842 34.9973C27.4512 35.0964 24.7691 33.7587 18.0637 30.2985C8.76716 25.5013 8.69166 25.4599 8.96966 25.3127C11.6988 23.8675 46.9681 5.70875 47.0128 5.72585C47.0473 5.73915 55.6548 10.179 66.1406 15.5922ZM24.9679 40.0353L27.35 41.2707L27.3756 49.5853C27.3896 54.1584 27.3752 57.9 27.3435 57.9C27.1243 57.9 22.7393 54.7588 22.4179 54.3716C22.3194 54.2528 22.3078 52.6044 22.3628 46.5107C22.4011 42.2698 22.4669 38.8 22.5091 38.8C22.5512 38.8 23.6577 39.3559 24.9679 40.0353ZM71.4 46.6365V54.4731L70.375 55.2753C67.0935 57.8436 64.6262 59.3123 61.5397 60.5346C53.3913 63.7614 42.5834 63.912 33.8 60.9213L32.95 60.6318L32.9244 52.405C32.9001 44.5949 32.9077 44.1815 33.0744 44.2447C33.171 44.2813 35.635 45.5412 38.55 47.0444C46.5417 51.1656 45.589 50.7299 46.7184 50.7799C47.456 50.8125 47.8137 50.7816 48.2184 50.65C48.5108 50.5551 53.8125 47.855 60 44.65C66.1875 41.4449 71.2837 38.8175 71.325 38.8113C71.3663 38.8051 71.4 42.3264 71.4 46.6365Z" fill="white"/>
</svg>
