<svg width="83" height="95" viewBox="0 0 83 95" fill="none" xmlns="http://www.w3.org/2000/svg">
<path id="&#208;&#162;&#209;&#131;&#209;&#128;&#208;&#184;&#208;&#183;&#208;&#188;" fill-rule="evenodd" clip-rule="evenodd" d="M25.15 0.101037C24.985 0.145337 24.5575 0.234537 24.2 0.299337C22.4403 0.618237 21.5072 1.59464 21.5022 3.12214L21.5 3.79424L24.55 9.89844C26.2275 13.2557 27.6 16.0429 27.6 16.0922C27.6 16.1415 27.3637 16.1178 27.075 16.0395C25.7027 15.6672 24.2625 15.3822 22.25 15.0847C21.0501 14.9074 16.3692 14.9055 15.15 15.0819C12.7286 15.4323 10.1164 16.1083 8.6 16.777C5.8768 17.9778 4.2003 19.0953 2.5466 20.8121C1.2878 22.1191 0.431 23.4325 0.0952001 24.5701C-0.1932 25.5473 0.6557 27.0877 1.7287 27.5341C1.9054 27.6076 2.41 27.7404 2.85 27.8292C3.29 27.918 4.64 28.196 5.85 28.447C7.06 28.698 8.815 29.0585 9.75 29.2481C11.5379 29.6107 16.0585 30.5411 17.7409 30.8928C18.2859 31.0068 18.7472 31.1 18.7659 31.1C18.8973 31.1 18.7461 31.3984 18.464 31.6958C17.1492 33.0816 15.7637 35.4916 15.0495 37.6352C14.3997 39.5854 14.2514 40.5872 14.255 43C14.2585 45.2805 14.3112 45.682 14.8525 47.55C14.9959 48.045 15.1937 48.6323 15.2922 48.8551C15.8468 50.1106 17.176 50.7776 18.4576 50.4438C19.0495 50.2896 19.3035 50.13 26.4 45.4528C31.1189 42.3426 31.1481 42.3236 31.1816 42.3526C31.199 42.3676 30.829 44.1057 30.3594 46.215C27.3504 59.7306 25.1027 71.8187 23.0547 85.5C22.8613 86.7925 22.6784 87.9929 22.6483 88.1676L22.5937 88.4852L18.2219 88.5176L13.85 88.55L13.2994 88.8083C12.6597 89.1084 12.1822 89.5532 11.8735 90.1366C11.5645 90.7203 11.5645 91.8797 11.8735 92.4634C12.1815 93.0454 12.6613 93.4933 13.2803 93.7767L13.8118 94.0201L17.3809 94.0116C32.843 93.9752 46.8585 93.8726 47.4333 93.7918C48.2857 93.6718 48.7439 93.4417 49.2728 92.8679C49.6866 92.419 50 91.6571 50 91.1C50 90.2024 49.3183 89.1291 48.4545 88.6666C48.0629 88.4569 47.9275 88.4491 44.2139 88.4205L40.3778 88.391L40.4415 86.9205C40.7394 80.047 40.8267 78.1954 41.0037 75C41.4551 66.8538 41.9555 60.3677 42.7551 52.3C43.1537 48.2786 43.8895 41.5009 43.9438 41.35C43.9636 41.295 44.0353 41.4008 44.1032 41.5852C44.3277 42.1948 44.6505 42.7215 46.7171 45.85C47.8433 47.555 49.0135 49.3325 49.3175 49.8C52.5173 54.7208 54.6181 57.7738 54.9664 58.0095C55.7914 58.5675 56.7958 58.6632 57.65 58.265C58.3035 57.9604 59.4841 56.7058 60.3844 55.3595C63.1623 51.2053 63.9009 46.0426 62.4281 41.0741C62.2853 40.5923 62.1977 40.169 62.2334 40.1333C62.2908 40.0759 63.7963 40.3592 66.8 40.9926C67.593 41.1598 70.8501 41.8299 75.6 42.8032C76.1225 42.9102 77.09 43.1103 77.75 43.2479C79.2092 43.5519 79.6326 43.5598 80.3369 43.2963C80.9438 43.0692 81.6077 42.4326 81.8775 41.819C82.0845 41.348 82.0749 40.0274 81.8571 39.0162C80.7305 33.7863 76.334 28.8686 70.0366 25.7946C67.3469 24.4817 64.8681 23.6934 61.6083 23.1142L60.0666 22.8403L60.6083 22.3774C60.9062 22.1228 63.1778 20.2313 65.6562 18.1741C68.1346 16.1169 70.2621 14.2937 70.3839 14.1226C71.2082 12.965 71.0634 11.4448 70.0388 10.5004C68.9258 9.47454 66.9981 8.49164 64.75 7.80384C63.4163 7.39584 61.1039 7.15454 59.4 7.24554C54.3965 7.51264 49.6917 9.58554 46.0244 13.1385C45.4603 13.685 44.9842 14.1137 44.9664 14.0911C44.9485 14.0685 44.8089 13.69 44.6561 13.25C44.0373 11.4688 42.7214 9.10584 41.4446 7.48304C40.0996 5.77384 37.8188 3.74284 35.9842 2.62064C35.4278 2.28034 33.9231 1.52404 33.15 1.19614C32.214 0.799137 30.9073 0.453937 29.044 0.111437C28.3591 -0.0144633 25.6074 -0.0218633 25.15 0.101037ZM29.6701 5.85084C31.8218 6.41024 33.8377 7.57374 35.6241 9.28724C38.4125 11.9616 40.0212 15.3093 40.4091 19.2448C40.5602 20.7774 40.4404 22.7602 40.1469 23.5845C40.1163 23.6705 39.7889 23.4089 39.2399 22.8599C38.334 21.954 37.3003 21.0865 36.3552 20.4391L35.7872 20.05L32.2197 12.95C30.2575 9.04504 28.6367 5.81624 28.6178 5.77504C28.5621 5.65374 29.0464 5.68864 29.6701 5.85084ZM62.45 12.9284C62.78 12.9953 63.0424 13.0881 63.033 13.1346C63.0173 13.2128 61.1793 14.7554 55.0973 19.7949C53.8063 20.8646 52.3825 22.0476 51.9333 22.4237L51.1165 23.1076L49.7538 23.4508C48.2791 23.8223 46.7702 24.3123 46.179 24.612C45.629 24.8907 45.5715 24.8647 45.6539 24.375C45.8679 23.1023 46.7295 21.144 47.7635 19.5798C48.6263 18.2748 50.5702 16.3034 51.8538 15.4318C53.9299 14.022 56.4015 13.0776 58.75 12.7969C59.6166 12.6933 61.6463 12.7654 62.45 12.9284ZM22.25 20.6364C26.2767 21.2912 29.4585 22.4661 32.4 24.3846C33.6272 25.185 34.5261 25.9151 35.5524 26.9451C36.4238 27.8197 37.4766 29.1567 37.3743 29.259C37.3244 29.309 36.9645 29.2402 33.45 28.5093C32.405 28.292 30.9875 27.9992 30.3 27.8587C29.6125 27.7183 28.06 27.3992 26.85 27.1496C25.64 26.9001 24.2225 26.6089 23.7 26.5026C23.1775 26.3962 21.535 26.058 20.05 25.7509C18.565 25.4438 17.1475 25.1514 16.9 25.1012C16.6525 25.0509 14.8975 24.6899 13 24.299C11.1025 23.908 9.2998 23.5425 8.994 23.4868C8.2601 23.3529 8.0819 23.2391 8.3465 23.0732C10.5679 21.6804 13.1841 20.8516 16.6 20.4584C17.367 20.3701 21.3922 20.497 22.25 20.6364ZM59.4038 28.345C62.2328 28.7028 64.6957 29.3897 67.1133 30.4949C70.1242 31.8714 72.7071 33.8292 74.461 36.0644C75.1491 36.9413 75.2296 37.1333 74.875 37.0526C74.1792 36.8941 72.6873 36.5781 71.55 36.3484C70.835 36.204 69.395 35.9075 68.35 35.6894C67.305 35.4714 65.685 35.1383 64.75 34.9491C63.815 34.7599 62.06 34.3997 60.85 34.1486C59.64 33.8975 57.9975 33.5606 57.2 33.4C56.4025 33.2393 55.3 33.0127 54.75 32.8963C51.9438 32.3026 46.052 31.1 45.9496 31.1C45.9258 31.1 45.9319 31.0333 45.9632 30.9517C46.0367 30.7601 48.427 29.5831 49.4 29.2594C50.8167 28.7881 52.2909 28.4663 53.95 28.2662C54.8091 28.1625 58.368 28.214 59.4038 28.345ZM27.75 32.9533C28.685 33.1473 30.2375 33.4648 31.2 33.6588C33.3169 34.0856 33.1956 34.0473 33.1349 34.2689C33.0786 34.4744 33.2028 34.3894 26.8 38.602C24.1875 40.3208 21.5487 42.0585 20.9361 42.4636C20.3235 42.8686 19.7879 43.2 19.746 43.2C19.7041 43.2 19.696 42.7387 19.728 42.175C19.9046 39.0639 21.537 35.9377 24.0347 33.9271C24.6338 33.4449 25.8581 32.6219 26 32.6061C26.0275 32.6031 26.815 32.7593 27.75 32.9533ZM38.8913 37.1C37.5185 48.2346 36.4182 59.9097 35.753 70.4C35.4586 75.0421 34.9012 86.4886 34.9003 87.9091L34.9 88.3681L31.5787 88.4294C29.752 88.4631 28.2399 88.4732 28.2185 88.4518C28.1372 88.3705 29.6704 78.7015 30.8035 72.15C32.5579 62.0061 34.6518 51.8637 37.5131 39.65C38.4567 35.6222 38.54 35.3295 38.8284 35.0265C38.9978 34.8486 39.1464 34.7136 39.1587 34.7265C39.171 34.7394 39.0507 35.8075 38.8913 37.1ZM48.9 37.305C49.4225 37.416 50.75 37.6886 51.85 37.9108C54.9221 38.5312 55.0213 38.5589 55.2488 38.8574C55.7194 39.4749 56.5244 40.9052 56.7946 41.6038C57.921 44.516 57.9582 47.4484 56.9039 50.225C56.7839 50.5413 56.6551 50.7984 56.6178 50.7964C56.5805 50.7944 55.6127 49.3656 54.4671 47.6214C53.3215 45.8771 51.3077 42.8179 49.9921 40.8232C48.6764 38.8285 47.6 37.1747 47.6 37.1482C47.6 37.0601 47.9407 37.1012 48.9 37.305Z" fill="white"/>
</svg>
