<svg width="94" height="94" viewBox="0 0 94 94" fill="none" xmlns="http://www.w3.org/2000/svg">
<path id="&#208;&#146;&#208;&#184;&#208;&#180;&#208;&#181;&#208;&#190;" fill-rule="evenodd" clip-rule="evenodd" d="M27.35 0.399286L8.25 0.449986L7.293 0.714686C3.4653 1.77329 0.817 4.81759 0.1509 8.92479C0.0203001 9.72969 0.000799971 13.1169 0.000399971 34.9808L0 60.1117L0.3074 61.3308C0.8426 63.4537 1.6367 64.8684 3.0969 66.3C4.0908 67.2745 5.2169 67.9931 6.4139 68.4167C8.1973 69.0478 5.3788 69.0014 46 69.0688C85.1074 69.1336 84.4224 69.1401 86.1951 68.6897C87.1212 68.4545 88.4319 67.8382 89.2428 67.2568C89.5768 67.0173 90.1924 66.4678 90.6109 66.0357C91.9289 64.6748 92.6224 63.366 93.1632 61.2188L93.5 59.8818L93.4992 35.2159C93.4986 19.069 93.463 10.2392 93.3961 9.64999C93.0852 6.91369 92.108 4.80219 90.3845 3.14279C88.7277 1.54759 87.2691 0.853487 84.8179 0.494187C83.529 0.305286 82.885 0.299786 64.9679 0.323786C54.783 0.337386 37.855 0.371386 27.35 0.399286ZM84.6837 6.03159C85.0322 6.12519 85.5146 6.31729 85.7558 6.45869C86.3399 6.80099 87.1276 7.67739 87.4334 8.32519C87.9741 9.47079 87.95 8.24009 87.95 34.75C87.95 57.9173 87.9397 59.3937 87.7733 60.1C87.3691 61.8162 86.1689 63.0504 84.55 63.4149C84.0508 63.5273 77.6761 63.5456 46.6 63.5238C5.4592 63.495 8.6075 63.5465 7.5768 62.8851C6.5957 62.2556 5.9226 61.2289 5.6514 59.9483C5.4281 58.8943 5.4281 10.5057 5.6514 9.45169C6.0001 7.80549 7.0057 6.62839 8.5472 6.06209C8.8727 5.94249 39.1691 5.83709 68.6 5.85309C82.8129 5.86089 84.1007 5.87519 84.6837 6.03159ZM36.0462 16.3304C35.7691 16.4628 35.3604 16.7779 35.138 17.0306C34.3427 17.9341 34.3999 16.5671 34.4006 34.6365C34.4009 45.295 34.4357 50.8745 34.5033 51.1177C34.6997 51.8249 35.1976 52.4186 35.9 52.783C36.4981 53.0934 36.6059 53.1168 37.25 53.0758C37.7379 53.0447 38.1015 52.9535 38.45 52.7748C39.4608 52.2563 64.0609 36.9774 64.3789 36.6706C65.5776 35.514 65.6042 33.5934 64.437 32.4814C64.2241 32.2786 62.385 31.0828 60.35 29.824C42.8833 19.0195 38.8042 16.5034 38.5 16.3459C38.2758 16.2299 37.8625 16.1513 37.35 16.1272C36.6633 16.095 36.4787 16.1237 36.0462 16.3304ZM48.6679 29.075C53.4465 32.0313 57.3685 34.4875 57.3833 34.5333C57.4053 34.6013 40.0709 45.4 39.9397 45.4C39.9179 45.4 39.9 40.5175 39.9 34.55C39.9 28.5825 39.9179 23.7 39.9397 23.7C39.9616 23.7 43.8893 26.1188 48.6679 29.075ZM25.6655 72.2531C21.754 72.9925 18.5164 75.7689 17.2961 79.4304L17.0693 80.1109L10.9097 80.0933C6.6282 80.0811 4.6251 80.1099 4.3404 80.1876C3.0176 80.5487 2.112 82.0009 2.3929 83.3105C2.5262 83.9319 2.6196 84.1105 3.0757 84.6153C3.4359 85.0139 3.7734 85.2315 4.3442 85.4328C4.5434 85.5032 6.8047 85.5598 10.8345 85.5954L17.0189 85.65L17.2413 86.35C17.7432 87.93 18.8298 89.6379 20.0888 90.8256C21.4053 92.0674 23.0694 92.9884 24.8723 93.4728C25.7468 93.7078 26.0295 93.7356 27.55 93.7356C29.078 93.7356 29.3512 93.7085 30.25 93.4677C33.7889 92.5197 36.625 89.8924 37.8138 86.4605L38.0946 85.65H63.7723C85.0429 85.65 89.5195 85.6269 89.8549 85.5152C91.2734 85.0429 92.0652 83.5635 91.6549 82.1521C91.4221 81.3511 90.6559 80.5763 89.8881 80.3653C89.2165 80.1808 78.4071 80.1002 54.2933 80.1001L38.0365 80.1L37.8574 79.525C37.6036 78.7105 36.7892 77.166 36.2046 76.3907C34.7827 74.5046 32.5811 73.0441 30.25 72.4402C28.9782 72.1107 26.8732 72.0248 25.6655 72.2531ZM28.776 77.7506C29.7408 77.978 30.569 78.4483 31.3103 79.1897C32.9823 80.8616 33.3576 83.1932 32.302 85.35C31.0337 87.9412 27.737 88.9863 25.0795 87.6396C24.3802 87.2852 23.286 86.2092 22.9126 85.5085C22.5519 84.8317 22.1992 83.5667 22.2017 82.959C22.2075 81.6065 22.8171 80.1645 23.7921 79.1973C25.1563 77.844 26.9562 77.3215 28.776 77.7506Z" fill="white"/>
</svg>
