<svg xmlns="http://www.w3.org/2000/svg" width="47.83" height="47.95" xml:space="preserve" style="clip-rule:evenodd;fill-rule:evenodd;stroke-linejoin:round;stroke-miterlimit:2">
  <path style="fill:none" d="M-648.06-136.13h1280v800h-1280z"/>
  <path d="M31.88 36.02c-3.39 2.5 7.14-8.27 4.15-4.17.07 0-.07.22-.53.79 0 0 8 7.95 11.93 12 1.36 1.47-1.1 4.41-2.77 2.88a1054.64 1054.64 0 0 1-11.99-12.05Z"/>
  <path d="M28.18 48.16a20.31 20.31 0 0 0 13.91-5.8 20.3 20.3 0 0 0 5.82-16.75A19.8 19.8 0 0 0 28.05 8.13 20.55 20.55 0 0 0 9.91 19.72a20.09 20.09 0 0 0 0 16.85 20.53 20.53 0 0 0 18.01 11.6h.26zm-.24-3.33c-7.69-.08-14.86-6.03-16.3-13.65-1-5.38.9-11.2 4.86-15.02a16.89 16.89 0 0 1 17.91-3.42 17.11 17.11 0 0 1 10.19 13.3 16.89 16.89 0 0 1-4.64 13.73 16.87 16.87 0 0 1-11.8 5.05h-.22z" style="fill-rule:nonzero" transform="translate(-8.06 -8.13)"/>
</svg>
